<?xml version="1.0" encoding="utf-8"?>
<!-- Generator: Adobe Illustrator 28.0.0, SVG Export Plug-In . SVG Version: 6.00 Build 0)  -->
<svg version="1.1" id="Livello_1" xmlns="http://www.w3.org/2000/svg" xmlns:xlink="http://www.w3.org/1999/xlink" x="0px" y="0px"
	 viewBox="0 0 400 400" enable-background="new 0 0 400 400" xml:space="preserve">
<g>
	<rect fill="#FFFFFF" width="400" height="400"/>
	<g>
		<rect x="50" y="50" width="10.34" height="20.69"/>
		<rect x="50" y="70.69" width="10.34" height="20.69"/>
		<rect x="50" y="91.38" width="10.34" height="31.03"/>
		<rect x="50" y="132.76" width="10.34" height="10.34"/>
		<rect x="50" y="163.79" width="10.34" height="10.34"/>
		<rect x="50" y="184.48" width="10.34" height="10.34"/>
		<rect x="50" y="205.17" width="10.34" height="20.69"/>
		<rect x="50" y="236.21" width="10.34" height="10.34"/>
		<rect x="50" y="256.9" width="10.34" height="10.34"/>
		<rect x="50" y="277.59" width="10.34" height="72.41"/>
		<rect x="60.34" y="50" width="10.34" height="10.34"/>
		<rect x="60.34" y="112.07" width="10.34" height="10.34"/>
		<rect x="60.34" y="143.1" width="10.34" height="20.69"/>
		<rect x="60.34" y="174.14" width="10.34" height="10.34"/>
		<rect x="60.34" y="205.17" width="10.34" height="10.34"/>
		<rect x="60.34" y="246.55" width="10.34" height="10.34"/>
		<rect x="60.34" y="277.59" width="10.34" height="10.34"/>
		<rect x="60.34" y="339.66" width="10.34" height="10.34"/>
		<rect x="70.69" y="50" width="10.34" height="10.34"/>
		<rect x="70.69" y="70.69" width="10.34" height="20.69"/>
		<rect x="70.69" y="91.38" width="10.34" height="10.34"/>
		<rect x="70.69" y="112.07" width="10.34" height="10.34"/>
		<rect x="70.69" y="132.76" width="10.34" height="20.69"/>
		<rect x="70.69" y="163.79" width="10.34" height="31.03"/>
		<rect x="70.69" y="215.52" width="10.34" height="10.34"/>
		<rect x="70.69" y="236.21" width="10.34" height="10.34"/>
		<rect x="70.69" y="277.59" width="10.34" height="10.34"/>
		<rect x="70.69" y="298.28" width="10.34" height="31.03"/>
		<rect x="70.69" y="339.66" width="10.34" height="10.34"/>
		<rect x="81.03" y="50" width="10.34" height="10.34"/>
		<rect x="81.03" y="70.69" width="10.34" height="20.69"/>
		<rect x="81.03" y="91.38" width="10.34" height="10.34"/>
		<rect x="81.03" y="112.07" width="10.34" height="10.34"/>
		<rect x="81.03" y="143.1" width="10.34" height="10.34"/>
		<rect x="81.03" y="174.14" width="10.34" height="10.34"/>
		<rect x="81.03" y="194.83" width="10.34" height="10.34"/>
		<rect x="81.03" y="215.52" width="10.34" height="10.34"/>
		<rect x="81.03" y="256.9" width="10.34" height="10.34"/>
		<rect x="81.03" y="277.59" width="10.34" height="10.34"/>
		<rect x="81.03" y="298.28" width="10.34" height="31.03"/>
		<rect x="81.03" y="339.66" width="10.34" height="10.34"/>
		<rect x="91.38" y="50" width="10.34" height="10.34"/>
		<rect x="91.38" y="70.69" width="10.34" height="20.69"/>
		<rect x="91.38" y="91.38" width="10.34" height="10.34"/>
		<rect x="91.38" y="112.07" width="10.34" height="10.34"/>
		<rect x="91.38" y="132.76" width="10.34" height="72.41"/>
		<rect x="91.38" y="225.86" width="10.34" height="41.38"/>
		<rect x="91.38" y="277.59" width="10.34" height="10.34"/>
		<rect x="91.38" y="298.28" width="10.34" height="31.03"/>
		<rect x="91.38" y="339.66" width="10.34" height="10.34"/>
		<rect x="101.72" y="50" width="10.34" height="10.34"/>
		<rect x="101.72" y="112.07" width="10.34" height="10.34"/>
		<rect x="101.72" y="163.79" width="10.34" height="20.69"/>
		<rect x="101.72" y="215.52" width="10.34" height="20.69"/>
		<rect x="101.72" y="277.59" width="10.34" height="10.34"/>
		<rect x="101.72" y="339.66" width="10.34" height="10.34"/>
		<rect x="112.07" y="50" width="10.34" height="20.69"/>
		<rect x="112.07" y="70.69" width="10.34" height="20.69"/>
		<rect x="112.07" y="91.38" width="10.34" height="31.03"/>
		<rect x="112.07" y="132.76" width="10.34" height="10.34"/>
		<rect x="112.07" y="153.45" width="10.34" height="10.34"/>
		<rect x="112.07" y="174.14" width="10.34" height="10.34"/>
		<rect x="112.07" y="194.83" width="10.34" height="10.34"/>
		<rect x="112.07" y="215.52" width="10.34" height="10.34"/>
		<rect x="112.07" y="236.21" width="10.34" height="10.34"/>
		<rect x="112.07" y="256.9" width="10.34" height="10.34"/>
		<rect x="112.07" y="277.59" width="10.34" height="72.41"/>
		<rect x="122.41" y="143.1" width="10.34" height="10.34"/>
		<rect x="122.41" y="163.79" width="10.34" height="10.34"/>
		<rect x="122.41" y="184.48" width="10.34" height="20.69"/>
		<rect x="122.41" y="215.52" width="10.34" height="20.69"/>
		<rect x="122.41" y="246.55" width="10.34" height="20.69"/>
		<rect x="132.76" y="60.34" width="10.34" height="10.34"/>
		<rect x="132.76" y="91.38" width="10.34" height="10.34"/>
		<rect x="132.76" y="112.07" width="10.34" height="10.34"/>
		<rect x="132.76" y="143.1" width="10.34" height="20.69"/>
		<rect x="132.76" y="194.83" width="10.34" height="31.03"/>
		<rect x="132.76" y="236.21" width="10.34" height="41.38"/>
		<rect x="132.76" y="298.28" width="10.34" height="10.34"/>
		<rect x="132.76" y="318.97" width="10.34" height="10.34"/>
		<rect x="132.76" y="339.66" width="10.34" height="10.34"/>
		<rect x="143.1" y="50" width="10.34" height="10.34"/>
		<rect x="143.1" y="70.69" width="10.34" height="20.69"/>
		<rect x="143.1" y="91.38" width="10.34" height="10.34"/>
		<rect x="143.1" y="153.45" width="10.34" height="31.03"/>
		<rect x="143.1" y="205.17" width="10.34" height="10.34"/>
		<rect x="143.1" y="236.21" width="10.34" height="31.03"/>
		<rect x="143.1" y="287.93" width="10.34" height="10.34"/>
		<rect x="143.1" y="308.62" width="10.34" height="10.34"/>
		<rect x="143.1" y="339.66" width="10.34" height="10.34"/>
		<rect x="153.45" y="81.03" width="10.34" height="10.34"/>
		<rect x="153.45" y="112.07" width="10.34" height="20.69"/>
		<rect x="153.45" y="153.45" width="10.34" height="10.34"/>
		<rect x="153.45" y="174.14" width="10.34" height="10.34"/>
		<rect x="153.45" y="205.17" width="10.34" height="41.38"/>
		<rect x="153.45" y="267.24" width="10.34" height="82.76"/>
		<rect x="163.79" y="50" width="10.34" height="10.34"/>
		<rect x="163.79" y="70.69" width="10.34" height="10.34"/>
		<rect x="163.79" y="101.72" width="10.34" height="10.34"/>
		<rect x="163.79" y="132.76" width="10.34" height="31.03"/>
		<rect x="163.79" y="174.14" width="10.34" height="10.34"/>
		<rect x="163.79" y="194.83" width="10.34" height="10.34"/>
		<rect x="163.79" y="246.55" width="10.34" height="10.34"/>
		<rect x="163.79" y="267.24" width="10.34" height="41.38"/>
		<rect x="163.79" y="318.97" width="10.34" height="10.34"/>
		<rect x="174.14" y="70.69" width="10.34" height="10.34"/>
		<rect x="174.14" y="91.38" width="10.34" height="31.03"/>
		<rect x="174.14" y="132.76" width="10.34" height="10.34"/>
		<rect x="174.14" y="153.45" width="10.34" height="20.69"/>
		<rect x="174.14" y="215.52" width="10.34" height="10.34"/>
		<rect x="174.14" y="236.21" width="10.34" height="10.34"/>
		<rect x="174.14" y="267.24" width="10.34" height="10.34"/>
		<rect x="174.14" y="298.28" width="10.34" height="10.34"/>
		<rect x="174.14" y="318.97" width="10.34" height="31.03"/>
		<rect x="184.48" y="60.34" width="10.34" height="10.34"/>
		<rect x="184.48" y="81.03" width="10.34" height="10.34"/>
		<rect x="184.48" y="91.38" width="10.34" height="10.34"/>
		<rect x="184.48" y="143.1" width="10.34" height="10.34"/>
		<rect x="184.48" y="163.79" width="10.34" height="10.34"/>
		<rect x="184.48" y="194.83" width="10.34" height="10.34"/>
		<rect x="184.48" y="225.86" width="10.34" height="10.34"/>
		<rect x="184.48" y="246.55" width="10.34" height="10.34"/>
		<rect x="184.48" y="277.59" width="10.34" height="10.34"/>
		<rect x="184.48" y="308.62" width="10.34" height="31.03"/>
		<rect x="194.83" y="50" width="10.34" height="10.34"/>
		<rect x="194.83" y="101.72" width="10.34" height="20.69"/>
		<rect x="194.83" y="153.45" width="10.34" height="41.38"/>
		<rect x="194.83" y="236.21" width="10.34" height="41.38"/>
		<rect x="194.83" y="318.97" width="10.34" height="20.69"/>
		<rect x="205.17" y="70.69" width="10.34" height="10.34"/>
		<rect x="205.17" y="101.72" width="10.34" height="10.34"/>
		<rect x="205.17" y="122.41" width="10.34" height="10.34"/>
		<rect x="205.17" y="143.1" width="10.34" height="10.34"/>
		<rect x="205.17" y="184.48" width="10.34" height="10.34"/>
		<rect x="205.17" y="205.17" width="10.34" height="10.34"/>
		<rect x="205.17" y="236.21" width="10.34" height="10.34"/>
		<rect x="205.17" y="256.9" width="10.34" height="20.69"/>
		<rect x="205.17" y="287.93" width="10.34" height="10.34"/>
		<rect x="205.17" y="329.31" width="10.34" height="10.34"/>
		<rect x="215.52" y="91.38" width="10.34" height="10.34"/>
		<rect x="215.52" y="112.07" width="10.34" height="20.69"/>
		<rect x="215.52" y="153.45" width="10.34" height="10.34"/>
		<rect x="215.52" y="174.14" width="10.34" height="10.34"/>
		<rect x="215.52" y="215.52" width="10.34" height="10.34"/>
		<rect x="215.52" y="267.24" width="10.34" height="10.34"/>
		<rect x="215.52" y="287.93" width="10.34" height="10.34"/>
		<rect x="215.52" y="318.97" width="10.34" height="10.34"/>
		<rect x="215.52" y="339.66" width="10.34" height="10.34"/>
		<rect x="225.86" y="50" width="10.34" height="10.34"/>
		<rect x="225.86" y="91.38" width="10.34" height="20.69"/>
		<rect x="225.86" y="122.41" width="10.34" height="20.69"/>
		<rect x="225.86" y="153.45" width="10.34" height="31.03"/>
		<rect x="225.86" y="194.83" width="10.34" height="20.69"/>
		<rect x="225.86" y="225.86" width="10.34" height="10.34"/>
		<rect x="225.86" y="246.55" width="10.34" height="10.34"/>
		<rect x="225.86" y="267.24" width="10.34" height="31.03"/>
		<rect x="225.86" y="318.97" width="10.34" height="31.03"/>
		<rect x="236.21" y="50" width="10.34" height="20.69"/>
		<rect x="236.21" y="70.69" width="10.34" height="20.69"/>
		<rect x="236.21" y="91.38" width="10.34" height="10.34"/>
		<rect x="236.21" y="112.07" width="10.34" height="20.69"/>
		<rect x="236.21" y="163.79" width="10.34" height="20.69"/>
		<rect x="236.21" y="205.17" width="10.34" height="10.34"/>
		<rect x="236.21" y="236.21" width="10.34" height="20.69"/>
		<rect x="236.21" y="267.24" width="10.34" height="20.69"/>
		<rect x="236.21" y="308.62" width="10.34" height="10.34"/>
		<rect x="236.21" y="329.31" width="10.34" height="20.69"/>
		<rect x="246.55" y="50" width="10.34" height="20.69"/>
		<rect x="246.55" y="70.69" width="10.34" height="20.69"/>
		<rect x="246.55" y="91.38" width="10.34" height="20.69"/>
		<rect x="246.55" y="122.41" width="10.34" height="10.34"/>
		<rect x="246.55" y="163.79" width="10.34" height="20.69"/>
		<rect x="246.55" y="205.17" width="10.34" height="10.34"/>
		<rect x="246.55" y="246.55" width="10.34" height="41.38"/>
		<rect x="246.55" y="318.97" width="10.34" height="31.03"/>
		<rect x="256.9" y="50" width="10.34" height="10.34"/>
		<rect x="256.9" y="70.69" width="10.34" height="10.34"/>
		<rect x="256.9" y="101.72" width="10.34" height="31.03"/>
		<rect x="256.9" y="143.1" width="10.34" height="20.69"/>
		<rect x="256.9" y="174.14" width="10.34" height="41.38"/>
		<rect x="256.9" y="225.86" width="10.34" height="10.34"/>
		<rect x="256.9" y="256.9" width="10.34" height="93.1"/>
		<rect x="267.24" y="163.79" width="10.34" height="10.34"/>
		<rect x="267.24" y="205.17" width="10.34" height="10.34"/>
		<rect x="267.24" y="256.9" width="10.34" height="10.34"/>
		<rect x="267.24" y="298.28" width="10.34" height="20.69"/>
		<rect x="277.59" y="50" width="10.34" height="20.69"/>
		<rect x="277.59" y="70.69" width="10.34" height="20.69"/>
		<rect x="277.59" y="91.38" width="10.34" height="31.03"/>
		<rect x="277.59" y="143.1" width="10.34" height="10.34"/>
		<rect x="277.59" y="163.79" width="10.34" height="103.45"/>
		<rect x="277.59" y="277.59" width="10.34" height="10.34"/>
		<rect x="277.59" y="298.28" width="10.34" height="10.34"/>
		<rect x="277.59" y="329.31" width="10.34" height="10.34"/>
		<rect x="287.93" y="50" width="10.34" height="10.34"/>
		<rect x="287.93" y="112.07" width="10.34" height="10.34"/>
		<rect x="287.93" y="153.45" width="10.34" height="10.34"/>
		<rect x="287.93" y="236.21" width="10.34" height="10.34"/>
		<rect x="287.93" y="256.9" width="10.34" height="10.34"/>
		<rect x="287.93" y="298.28" width="10.34" height="41.38"/>
		<rect x="298.28" y="50" width="10.34" height="10.34"/>
		<rect x="298.28" y="70.69" width="10.34" height="20.69"/>
		<rect x="298.28" y="91.38" width="10.34" height="10.34"/>
		<rect x="298.28" y="112.07" width="10.34" height="10.34"/>
		<rect x="298.28" y="132.76" width="10.34" height="10.34"/>
		<rect x="298.28" y="163.79" width="10.34" height="10.34"/>
		<rect x="298.28" y="205.17" width="10.34" height="10.34"/>
		<rect x="298.28" y="236.21" width="10.34" height="10.34"/>
		<rect x="298.28" y="256.9" width="10.34" height="93.1"/>
		<rect x="308.62" y="50" width="10.34" height="10.34"/>
		<rect x="308.62" y="70.69" width="10.34" height="20.69"/>
		<rect x="308.62" y="91.38" width="10.34" height="10.34"/>
		<rect x="308.62" y="112.07" width="10.34" height="10.34"/>
		<rect x="308.62" y="143.1" width="10.34" height="10.34"/>
		<rect x="308.62" y="174.14" width="10.34" height="62.07"/>
		<rect x="308.62" y="246.55" width="10.34" height="10.34"/>
		<rect x="308.62" y="277.59" width="10.34" height="20.69"/>
		<rect x="308.62" y="318.97" width="10.34" height="10.34"/>
		<rect x="318.97" y="50" width="10.34" height="10.34"/>
		<rect x="318.97" y="70.69" width="10.34" height="20.69"/>
		<rect x="318.97" y="91.38" width="10.34" height="10.34"/>
		<rect x="318.97" y="112.07" width="10.34" height="10.34"/>
		<rect x="318.97" y="153.45" width="10.34" height="10.34"/>
		<rect x="318.97" y="225.86" width="10.34" height="10.34"/>
		<rect x="318.97" y="267.24" width="10.34" height="10.34"/>
		<rect x="318.97" y="308.62" width="10.34" height="10.34"/>
		<rect x="329.31" y="50" width="10.34" height="10.34"/>
		<rect x="329.31" y="112.07" width="10.34" height="10.34"/>
		<rect x="329.31" y="132.76" width="10.34" height="10.34"/>
		<rect x="329.31" y="153.45" width="10.34" height="31.03"/>
		<rect x="329.31" y="194.83" width="10.34" height="31.03"/>
		<rect x="329.31" y="236.21" width="10.34" height="20.69"/>
		<rect x="329.31" y="267.24" width="10.34" height="20.69"/>
		<rect x="329.31" y="298.28" width="10.34" height="10.34"/>
		<rect x="329.31" y="329.31" width="10.34" height="20.69"/>
		<rect x="339.66" y="50" width="10.34" height="20.69"/>
		<rect x="339.66" y="70.69" width="10.34" height="20.69"/>
		<rect x="339.66" y="91.38" width="10.34" height="31.03"/>
		<rect x="339.66" y="143.1" width="10.34" height="20.69"/>
		<rect x="339.66" y="174.14" width="10.34" height="31.03"/>
		<rect x="339.66" y="215.52" width="10.34" height="31.03"/>
		<rect x="339.66" y="267.24" width="10.34" height="20.69"/>
		<rect x="339.66" y="318.97" width="10.34" height="10.34"/>
		<rect x="339.66" y="339.66" width="10.34" height="10.34"/>
	</g>
</g>
</svg>
