<?xml version="1.0" encoding="utf-8"?>
<!-- Generator: Adobe Illustrator 28.0.0, SVG Export Plug-In . SVG Version: 6.00 Build 0)  -->
<svg version="1.1" id="Livello_1" xmlns="http://www.w3.org/2000/svg" xmlns:xlink="http://www.w3.org/1999/xlink" x="0px" y="0px"
	 viewBox="0 0 177.74 177.74" enable-background="new 0 0 177.74 177.74" xml:space="preserve">
<rect width="6.13" height="12.26"/>
<rect y="12.26" width="6.13" height="12.26"/>
<rect y="24.52" width="6.13" height="18.39"/>
<rect y="49.03" width="6.13" height="6.13"/>
<rect y="67.42" width="6.13" height="6.13"/>
<rect y="79.68" width="6.13" height="6.13"/>
<rect y="91.93" width="6.13" height="12.26"/>
<rect y="110.32" width="6.13" height="6.13"/>
<rect y="122.58" width="6.13" height="6.13"/>
<rect y="134.84" width="6.13" height="42.9"/>
<rect x="6.13" width="6.13" height="6.13"/>
<rect x="6.13" y="36.77" width="6.13" height="6.13"/>
<rect x="6.13" y="55.16" width="6.13" height="12.26"/>
<rect x="6.13" y="73.55" width="6.13" height="6.13"/>
<rect x="6.13" y="91.93" width="6.13" height="6.13"/>
<rect x="6.13" y="116.45" width="6.13" height="6.13"/>
<rect x="6.13" y="134.84" width="6.13" height="6.13"/>
<rect x="6.13" y="171.61" width="6.13" height="6.13"/>
<rect x="12.26" width="6.13" height="6.13"/>
<rect x="12.26" y="12.26" width="6.13" height="12.26"/>
<rect x="12.26" y="24.52" width="6.13" height="6.13"/>
<rect x="12.26" y="36.77" width="6.13" height="6.13"/>
<rect x="12.26" y="49.03" width="6.13" height="12.26"/>
<rect x="12.26" y="67.42" width="6.13" height="18.39"/>
<rect x="12.26" y="98.06" width="6.13" height="6.13"/>
<rect x="12.26" y="110.32" width="6.13" height="6.13"/>
<rect x="12.26" y="134.84" width="6.13" height="6.13"/>
<rect x="12.26" y="147.1" width="6.13" height="18.39"/>
<rect x="12.26" y="171.61" width="6.13" height="6.13"/>
<rect x="18.39" width="6.13" height="6.13"/>
<rect x="18.39" y="12.26" width="6.13" height="12.26"/>
<rect x="18.39" y="24.52" width="6.13" height="6.13"/>
<rect x="18.39" y="36.77" width="6.13" height="6.13"/>
<rect x="18.39" y="55.16" width="6.13" height="6.13"/>
<rect x="18.39" y="73.55" width="6.13" height="6.13"/>
<rect x="18.39" y="85.81" width="6.13" height="6.13"/>
<rect x="18.39" y="98.06" width="6.13" height="6.13"/>
<rect x="18.39" y="122.58" width="6.13" height="6.13"/>
<rect x="18.39" y="134.84" width="6.13" height="6.13"/>
<rect x="18.39" y="147.1" width="6.13" height="18.39"/>
<rect x="18.39" y="171.61" width="6.13" height="6.13"/>
<rect x="24.52" width="6.13" height="6.13"/>
<rect x="24.52" y="12.26" width="6.13" height="12.26"/>
<rect x="24.52" y="24.52" width="6.13" height="6.13"/>
<rect x="24.52" y="36.77" width="6.13" height="6.13"/>
<rect x="24.52" y="49.03" width="6.13" height="42.9"/>
<rect x="24.52" y="104.19" width="6.13" height="24.52"/>
<rect x="24.52" y="134.84" width="6.13" height="6.13"/>
<rect x="24.52" y="147.1" width="6.13" height="18.39"/>
<rect x="24.52" y="171.61" width="6.13" height="6.13"/>
<rect x="30.64" width="6.13" height="6.13"/>
<rect x="30.64" y="36.77" width="6.13" height="6.13"/>
<rect x="30.64" y="67.42" width="6.13" height="12.26"/>
<rect x="30.64" y="98.06" width="6.13" height="12.26"/>
<rect x="30.64" y="134.84" width="6.13" height="6.13"/>
<rect x="30.64" y="171.61" width="6.13" height="6.13"/>
<rect x="36.77" width="6.13" height="12.26"/>
<rect x="36.77" y="12.26" width="6.13" height="12.26"/>
<rect x="36.77" y="24.52" width="6.13" height="18.39"/>
<rect x="36.77" y="49.03" width="6.13" height="6.13"/>
<rect x="36.77" y="61.29" width="6.13" height="6.13"/>
<rect x="36.77" y="73.55" width="6.13" height="6.13"/>
<rect x="36.77" y="85.81" width="6.13" height="6.13"/>
<rect x="36.77" y="98.06" width="6.13" height="6.13"/>
<rect x="36.77" y="110.32" width="6.13" height="6.13"/>
<rect x="36.77" y="122.58" width="6.13" height="6.13"/>
<rect x="36.77" y="134.84" width="6.13" height="42.9"/>
<rect x="42.9" y="55.16" width="6.13" height="6.13"/>
<rect x="42.9" y="67.42" width="6.13" height="6.13"/>
<rect x="42.9" y="79.68" width="6.13" height="12.26"/>
<rect x="42.9" y="98.06" width="6.13" height="12.26"/>
<rect x="42.9" y="116.45" width="6.13" height="12.26"/>
<rect x="49.03" y="6.13" width="6.13" height="6.13"/>
<rect x="49.03" y="24.52" width="6.13" height="6.13"/>
<rect x="49.03" y="36.77" width="6.13" height="6.13"/>
<rect x="49.03" y="55.16" width="6.13" height="12.26"/>
<rect x="49.03" y="85.81" width="6.13" height="18.39"/>
<rect x="49.03" y="110.32" width="6.13" height="24.52"/>
<rect x="49.03" y="147.1" width="6.13" height="6.13"/>
<rect x="49.03" y="159.35" width="6.13" height="6.13"/>
<rect x="49.03" y="171.61" width="6.13" height="6.13"/>
<rect x="55.16" width="6.13" height="6.13"/>
<rect x="55.16" y="12.26" width="6.13" height="12.26"/>
<rect x="55.16" y="24.52" width="6.13" height="6.13"/>
<rect x="55.16" y="61.29" width="6.13" height="18.39"/>
<rect x="55.16" y="91.93" width="6.13" height="6.13"/>
<rect x="55.16" y="110.32" width="6.13" height="18.39"/>
<rect x="55.16" y="140.97" width="6.13" height="6.13"/>
<rect x="55.16" y="153.22" width="6.13" height="6.13"/>
<rect x="55.16" y="171.61" width="6.13" height="6.13"/>
<rect x="61.29" y="18.39" width="6.13" height="6.13"/>
<rect x="61.29" y="36.77" width="6.13" height="12.26"/>
<rect x="61.29" y="61.29" width="6.13" height="6.13"/>
<rect x="61.29" y="73.55" width="6.13" height="6.13"/>
<rect x="61.29" y="91.93" width="6.13" height="24.52"/>
<rect x="61.29" y="128.71" width="6.13" height="49.03"/>
<rect x="67.42" width="6.13" height="6.13"/>
<rect x="67.42" y="12.26" width="6.13" height="6.13"/>
<rect x="67.42" y="30.65" width="6.13" height="6.13"/>
<rect x="67.42" y="49.03" width="6.13" height="18.39"/>
<rect x="67.42" y="73.55" width="6.13" height="6.13"/>
<rect x="67.42" y="85.81" width="6.13" height="6.13"/>
<rect x="67.42" y="116.45" width="6.13" height="6.13"/>
<rect x="67.42" y="128.71" width="6.13" height="24.52"/>
<rect x="67.42" y="159.35" width="6.13" height="6.13"/>
<rect x="73.55" y="12.26" width="6.13" height="6.13"/>
<rect x="73.55" y="24.52" width="6.13" height="18.39"/>
<rect x="73.55" y="49.03" width="6.13" height="6.13"/>
<rect x="73.55" y="61.29" width="6.13" height="12.26"/>
<rect x="73.55" y="98.06" width="6.13" height="6.13"/>
<rect x="73.55" y="110.32" width="6.13" height="6.13"/>
<rect x="73.55" y="128.71" width="6.13" height="6.13"/>
<rect x="73.55" y="147.1" width="6.13" height="6.13"/>
<rect x="73.55" y="159.35" width="6.13" height="18.39"/>
<rect x="79.68" y="6.13" width="6.13" height="6.13"/>
<rect x="79.68" y="18.39" width="6.13" height="6.13"/>
<rect x="79.68" y="24.52" width="6.13" height="6.13"/>
<rect x="79.68" y="55.16" width="6.13" height="6.13"/>
<rect x="79.68" y="67.42" width="6.13" height="6.13"/>
<rect x="79.68" y="85.81" width="6.13" height="6.13"/>
<rect x="79.68" y="104.19" width="6.13" height="6.13"/>
<rect x="79.68" y="116.45" width="6.13" height="6.13"/>
<rect x="79.68" y="134.84" width="6.13" height="6.13"/>
<rect x="79.68" y="153.22" width="6.13" height="18.39"/>
<rect x="85.81" width="6.13" height="6.13"/>
<rect x="85.81" y="30.65" width="6.13" height="12.26"/>
<rect x="85.81" y="61.29" width="6.13" height="24.52"/>
<rect x="85.81" y="110.32" width="6.13" height="24.52"/>
<rect x="85.81" y="159.35" width="6.13" height="12.26"/>
<rect x="91.93" y="12.26" width="6.13" height="6.13"/>
<rect x="91.93" y="30.65" width="6.13" height="6.13"/>
<rect x="91.93" y="42.9" width="6.13" height="6.13"/>
<rect x="91.93" y="55.16" width="6.13" height="6.13"/>
<rect x="91.93" y="79.68" width="6.13" height="6.13"/>
<rect x="91.93" y="91.93" width="6.13" height="6.13"/>
<rect x="91.93" y="110.32" width="6.13" height="6.13"/>
<rect x="91.93" y="122.58" width="6.13" height="12.26"/>
<rect x="91.93" y="140.97" width="6.13" height="6.13"/>
<rect x="91.93" y="165.48" width="6.13" height="6.13"/>
<rect x="98.06" y="24.52" width="6.13" height="6.13"/>
<rect x="98.06" y="36.77" width="6.13" height="12.26"/>
<rect x="98.06" y="61.29" width="6.13" height="6.13"/>
<rect x="98.06" y="73.55" width="6.13" height="6.13"/>
<rect x="98.06" y="98.06" width="6.13" height="6.13"/>
<rect x="98.06" y="128.71" width="6.13" height="6.13"/>
<rect x="98.06" y="140.97" width="6.13" height="6.13"/>
<rect x="98.06" y="159.35" width="6.13" height="6.13"/>
<rect x="98.06" y="171.61" width="6.13" height="6.13"/>
<rect x="104.19" width="6.13" height="6.13"/>
<rect x="104.19" y="24.52" width="6.13" height="12.26"/>
<rect x="104.19" y="42.9" width="6.13" height="12.26"/>
<rect x="104.19" y="61.29" width="6.13" height="18.39"/>
<rect x="104.19" y="85.81" width="6.13" height="12.26"/>
<rect x="104.19" y="104.19" width="6.13" height="6.13"/>
<rect x="104.19" y="116.45" width="6.13" height="6.13"/>
<rect x="104.19" y="128.71" width="6.13" height="18.39"/>
<rect x="104.19" y="159.35" width="6.13" height="18.39"/>
<rect x="110.32" width="6.13" height="12.26"/>
<rect x="110.32" y="12.26" width="6.13" height="12.26"/>
<rect x="110.32" y="24.52" width="6.13" height="6.13"/>
<rect x="110.32" y="36.77" width="6.13" height="12.26"/>
<rect x="110.32" y="67.42" width="6.13" height="12.26"/>
<rect x="110.32" y="91.93" width="6.13" height="6.13"/>
<rect x="110.32" y="110.32" width="6.13" height="12.26"/>
<rect x="110.32" y="128.71" width="6.13" height="12.26"/>
<rect x="110.32" y="153.22" width="6.13" height="6.13"/>
<rect x="110.32" y="165.48" width="6.13" height="12.26"/>
<rect x="116.45" width="6.13" height="12.26"/>
<rect x="116.45" y="12.26" width="6.13" height="12.26"/>
<rect x="116.45" y="24.52" width="6.13" height="12.26"/>
<rect x="116.45" y="42.9" width="6.13" height="6.13"/>
<rect x="116.45" y="67.42" width="6.13" height="12.26"/>
<rect x="116.45" y="91.93" width="6.13" height="6.13"/>
<rect x="116.45" y="116.45" width="6.13" height="24.52"/>
<rect x="116.45" y="159.35" width="6.13" height="18.39"/>
<rect x="122.58" width="6.13" height="6.13"/>
<rect x="122.58" y="12.26" width="6.13" height="6.13"/>
<rect x="122.58" y="30.65" width="6.13" height="18.39"/>
<rect x="122.58" y="55.16" width="6.13" height="12.26"/>
<rect x="122.58" y="73.55" width="6.13" height="24.52"/>
<rect x="122.58" y="104.19" width="6.13" height="6.13"/>
<rect x="122.58" y="122.58" width="6.13" height="55.16"/>
<rect x="128.71" y="67.42" width="6.13" height="6.13"/>
<rect x="128.71" y="91.93" width="6.13" height="6.13"/>
<rect x="128.71" y="122.58" width="6.13" height="6.13"/>
<rect x="128.71" y="147.1" width="6.13" height="12.26"/>
<rect x="134.84" width="6.13" height="12.26"/>
<rect x="134.84" y="12.26" width="6.13" height="12.26"/>
<rect x="134.84" y="24.52" width="6.13" height="18.39"/>
<rect x="134.84" y="55.16" width="6.13" height="6.13"/>
<rect x="134.84" y="67.42" width="6.13" height="61.29"/>
<rect x="134.84" y="134.84" width="6.13" height="6.13"/>
<rect x="134.84" y="147.1" width="6.13" height="6.13"/>
<rect x="134.84" y="165.48" width="6.13" height="6.13"/>
<rect x="140.97" width="6.13" height="6.13"/>
<rect x="140.97" y="36.77" width="6.13" height="6.13"/>
<rect x="140.97" y="61.29" width="6.13" height="6.13"/>
<rect x="140.97" y="110.32" width="6.13" height="6.13"/>
<rect x="140.97" y="122.58" width="6.13" height="6.13"/>
<rect x="140.97" y="147.1" width="6.13" height="24.52"/>
<rect x="147.09" width="6.13" height="6.13"/>
<rect x="147.09" y="12.26" width="6.13" height="12.26"/>
<rect x="147.09" y="24.52" width="6.13" height="6.13"/>
<rect x="147.09" y="36.77" width="6.13" height="6.13"/>
<rect x="147.09" y="49.03" width="6.13" height="6.13"/>
<rect x="147.09" y="67.42" width="6.13" height="6.13"/>
<rect x="147.09" y="91.93" width="6.13" height="6.13"/>
<rect x="147.09" y="110.32" width="6.13" height="6.13"/>
<rect x="147.09" y="122.58" width="6.13" height="55.16"/>
<rect x="153.22" width="6.13" height="6.13"/>
<rect x="153.22" y="12.26" width="6.13" height="12.26"/>
<rect x="153.22" y="24.52" width="6.13" height="6.13"/>
<rect x="153.22" y="36.77" width="6.13" height="6.13"/>
<rect x="153.22" y="55.16" width="6.13" height="6.13"/>
<rect x="153.22" y="73.55" width="6.13" height="36.77"/>
<rect x="153.22" y="116.45" width="6.13" height="6.13"/>
<rect x="153.22" y="134.84" width="6.13" height="12.26"/>
<rect x="153.22" y="159.35" width="6.13" height="6.13"/>
<rect x="159.35" width="6.13" height="6.13"/>
<rect x="159.35" y="12.26" width="6.13" height="12.26"/>
<rect x="159.35" y="24.52" width="6.13" height="6.13"/>
<rect x="159.35" y="36.77" width="6.13" height="6.13"/>
<rect x="159.35" y="61.29" width="6.13" height="6.13"/>
<rect x="159.35" y="104.19" width="6.13" height="6.13"/>
<rect x="159.35" y="128.71" width="6.13" height="6.13"/>
<rect x="159.35" y="153.22" width="6.13" height="6.13"/>
<rect x="165.48" width="6.13" height="6.13"/>
<rect x="165.48" y="36.77" width="6.13" height="6.13"/>
<rect x="165.48" y="49.03" width="6.13" height="6.13"/>
<rect x="165.48" y="61.29" width="6.13" height="18.39"/>
<rect x="165.48" y="85.81" width="6.13" height="18.39"/>
<rect x="165.48" y="110.32" width="6.13" height="12.26"/>
<rect x="165.48" y="128.71" width="6.13" height="12.26"/>
<rect x="165.48" y="147.1" width="6.13" height="6.13"/>
<rect x="165.48" y="165.48" width="6.13" height="12.26"/>
<rect x="171.61" width="6.13" height="12.26"/>
<rect x="171.61" y="12.26" width="6.13" height="12.26"/>
<rect x="171.61" y="24.52" width="6.13" height="18.39"/>
<rect x="171.61" y="55.16" width="6.13" height="12.26"/>
<rect x="171.61" y="73.55" width="6.13" height="18.39"/>
<rect x="171.61" y="98.06" width="6.13" height="18.39"/>
<rect x="171.61" y="128.71" width="6.13" height="12.26"/>
<rect x="171.61" y="159.35" width="6.13" height="6.13"/>
<rect x="171.61" y="171.61" width="6.13" height="6.13"/>
</svg>
