<?xml version="1.0" encoding="utf-8"?>
<!-- Generator: Adobe Illustrator 28.0.0, SVG Export Plug-In . SVG Version: 6.00 Build 0)  -->
<svg version="1.1" id="Livello_1" xmlns="http://www.w3.org/2000/svg" xmlns:xlink="http://www.w3.org/1999/xlink" x="0px" y="0px"
	 viewBox="0 0 100 100.6" style="enable-background:new 0 0 100 100.6;" xml:space="preserve">
<style type="text/css">
	.st0{fill:#020203;}
</style>
<g>
	<path class="st0" d="M66.7,69.8c0.1,0,0.2-0.1,0.2-0.2v-0.8c0-0.1-0.1-0.2-0.2-0.2s-0.2,0.1-0.2,0.2v0.8
		C66.5,69.7,66.6,69.8,66.7,69.8"/>
	<path class="st0" d="M43.6,66.2c0.4,0,0.7-2.4,0.7-2.4l-1.6-3C42.8,60.8,43.6,63.7,43.6,66.2"/>
	<path class="st0" d="M25.2,37.3c0.5,0.1,0.5-1.5,0.1-1.6C24.9,35.5,24.6,37.2,25.2,37.3"/>
	<path class="st0" d="M25.9,40.2c0.4,0.1,0.6-1.4,0.6-1.4s0.3,0.5,1,0.4c0.6-0.2-0.4-1-0.4-1s2-0.2,1.6-1c-0.3-0.9-3,0.3-3,0.3
		S25.3,40.1,25.9,40.2"/>
	<path class="st0" d="M28.2,43.2c0-0.2-0.2-0.2-0.3-0.3c-0.1-0.2-0.2-0.1-0.2-0.1v0.3h-0.2c-0.3,0.1-0.4,0.3-0.8,0.4
		c-0.4,0.2-0.5,0-0.7,0c-0.2,0-0.7-0.1-0.9-0.1c0-0.2,0-0.5,0-0.7c0-0.2,0-0.5,0-0.7l0,0c0.4-0.1,0.9-0.2,1.2-0.4
		c0.1-0.1,0.1-0.2,0.1-0.3c-0.1-0.1-0.2-0.1-0.3-0.1c-0.3,0.2-0.7,0.3-1.1,0.4c-0.5,0.1-0.5,0.1-0.7-0.3c-0.1-0.1-0.2-0.1-0.3-0.1
		c-0.1,0.1-0.1,0.2-0.1,0.3c0.3,0.4,0.4,0.6,0.7,0.6l0.1,0c0,0.2,0,0.5,0,0.7c0,0.2,0,0.5,0,0.7c-0.3,0-0.6,0-1-0.1
		c0,0,0.5,1.1,0.7,1c0.1-0.1,0.4,0,0.9,0c0.5,0.1,0.2,0.1,0.8,0.1c0.5,0,0.7-0.2,1.3-0.3c0.4-0.1,0.5-0.2,0.6-0.3
		c0.1,0.1,0.2,0.1,0.4,0.1C28.7,43.7,28.3,43.4,28.2,43.2"/>
	<path class="st0" d="M64.5,91.7c0,0-0.9-0.4-2-0.4c-0.6,0-1.4,0.4-1.9,0.3c-0.2-0.1-0.4,0-0.5,0.2c-0.1,0.3,0,0.5,0.3,0.6
		c0.6,0.2,1.5-0.3,2.2-0.3c1,0,2,0.4,2.1,0.4c0.2,0,0.4-0.3,0.4-0.5C65,91.8,64.8,91.6,64.5,91.7"/>
	<path class="st0" d="M25.4,90.7c-1.1-0.1-1.1-0.1-2.1-0.3c-0.9-0.2-1-0.3-2-0.2c-0.9,0.1-0.9,0.2-1.8,0.2c-0.3,0.1-0.5,0.2-0.5,0.5
		c0.1,0.2,0.3,0.3,0.5,0.3c1.1-0.1,1.1,0,2.1-0.1c1-0.1,0.8,0,1.8,0.2c0.9,0.1,0.9,0.1,1.9,0.3c0.2,0,0.4-0.2,0.4-0.4
		C25.9,91,25.6,90.8,25.4,90.7"/>
	<path class="st0" d="M20.7,88.8c0-0.2-0.1-0.6-0.3-0.6c-1.2-0.3-1.2-0.2-2.3-0.5c-1.1-0.2-1.1-0.2-2.2-0.4c-1.1-0.2-1.2,0-2.3,0.1
		c-1.2,0.2-1.2,0.2-2.3,0.3c-1,0.2-1,0.1-2.1,0.3c-0.2,0-0.4,0.2-0.4,0.4c0,0.3,0.3,0.4,0.5,0.4c1.2-0.2,1.2-0.2,2.3-0.4
		c1.2-0.1,1.2-0.1,2.3-0.2c1-0.2,0.9-0.2,2,0c1.2,0.2,1.2,0.2,2.2,0.5c1,0.2,1,0.2,2.1,0.4C20.4,89.1,20.6,89,20.7,88.8"/>
	<path class="st0" d="M15.2,92.4c0-0.1-0.9-0.2-2.1-0.4c-0.6-0.1-1.7,0-2.3,0.1c-0.8,0.2-1.6,0.3-1.9,0.4c-0.2,0-0.4,0.3-0.4,0.5
		c0.1,0.2,0.3,0.3,0.6,0.3c0.2,0,1.1-0.1,2.1-0.3c0.6-0.1,1.3-0.3,1.9-0.2c1.1,0.2,1.9,0.4,2,0.4c0.2,0.1,0.5-0.1,0.5-0.3
		C15.6,92.6,15.5,92.4,15.2,92.4"/>
	<path class="st0" d="M34.5,87.3h2.3c1.3,0,1.2,0.3,2.3,0.5c1.2,0.2,1.2,0.1,2.4,0.3c1,0.2,1,0.3,2.1,0.5c0.2,0,0.4-0.2,0.5-0.4
		c0-0.2-0.1-0.4-0.4-0.4c-1.2-0.2-1.2-0.3-2.3-0.5c-1.3-0.2-1.3,0-2.4-0.2c-1.3-0.2-1.3-0.6-2.4-0.6c-1.2,0-1.2,0.1-2.4,0.1
		c-1.2,0-1.2,0.3-2.3,0.4c-1.2,0.1-1.3,0.2-2.4,0.2c-1.1,0.1-1.2-0.1-2.2,0c-0.2,0-0.5,0.4-0.5,0.6c0,0.3,0.4,0.5,0.6,0.5
		c1.3-0.1,1.2-0.3,2.4-0.4c1.2-0.1,1.3,0,2.4-0.1C33.4,87.8,33.2,87.3,34.5,87.3"/>
	<path class="st0" d="M53.4,91.4c-1.2-0.1-1.2-0.2-2.3-0.3c-1.3-0.1-1.3,0.2-2.5,0.2c-1.2-0.1-1.1-0.3-2.2-0.4
		c-1.3-0.1-1.3,0.1-2.4,0c-1.2-0.1-1.2-0.2-2.3-0.2h-2.3c-1.3,0-1.3,0.1-2.5,0.3c-1.1,0.2-1.1,0.3-2.2,0.5c-1.2,0.1-1,0.3-2.2,0.4
		c-1,0.1-1.2-0.1-2.2,0.1c-0.2,0-0.1,0.4-0.1,0.6c0,0.3,0.1,0.4,0.3,0.4c1.2-0.2,1.2-0.3,2.3-0.5s1.2-0.1,2.4-0.3
		c1.2-0.1,1.2-0.1,2.3-0.3c1.2-0.1,0.9-0.4,2.2-0.4c1.2,0,1.2,0.3,2.3,0.3s1.2-0.2,2.3-0.1c1.2,0.1,1.2-0.1,2.4-0.1
		c1,0.1,1,0.2,2.2,0.3c1.2,0,1.2,0.3,2.3,0.4c1,0.1,1,0.1,2.1,0.2c0.2,0,0.3-0.4,0.4-0.6C53.7,91.8,53.6,91.4,53.4,91.4"/>
	<path class="st0" d="M46,86c1-0.2,1-0.3,2.1-0.4c1.2-0.2,1.1-0.4,2.2-0.4h2.2c1,0,0.9,0,2.1,0.2c1,0.1,1,0.3,2.1,0.4
		c0.9,0.2,0.9,0.2,2,0.3c0.2,0.1,0.5-0.1,0.5-0.4c0.1-0.2-0.1-0.6-0.4-0.6c-1-0.2-1-0.1-2.1-0.2c-1.2-0.2-1.2-0.2-2.3-0.3
		c-1.1-0.2-1.2-0.3-2.2-0.3H50c-1,0-1,0.5-2.2,0.6c-0.9,0.1-0.9-0.1-2,0.1c-0.2,0-0.3,0.3-0.2,0.6C45.6,85.7,45.7,86,46,86"/>
	<path class="st0" d="M65.4,88.6C65.6,88.7,65.4,88.4,65.4,88.6"/>
	<path class="st0" d="M63.1,88.3c-1.2-0.2-1.2-0.1-2.3-0.2c-1-0.2-1-0.2-2.2-0.2c-1,0-1.2-0.3-2.2-0.1c-1,0-1-0.1-2.2,0
		c-0.9,0.1-0.9,0.3-1.9,0.4c-0.3,0-0.6,0.1-0.5,0.4c0,0.2,0.3,0.3,0.5,0.3c1.2-0.1,1.2-0.2,2.2-0.3c1.2-0.1,1.2,0,2.3-0.2
		c1-0.1,1,0.3,2.1,0.3c1.2,0,1,0.1,2.1,0.2c1.1,0.1,1.1,0.2,2.2,0.3c0.9,0.2,0.9,0.1,2,0.2c0.2,0,0.1-0.5,0.1-0.8
		C64.2,88.5,64.2,88.4,63.1,88.3"/>
	<path class="st0" d="M21.3,60c0.2,0.1,0.2,0,0.3-0.2c0.2-0.1,0.3,0,0.1-0.2c-0.4-0.4-1.6-2.4-2-3.5c-0.2-0.2-1.4-0.3-1.3-0.1
		C18.6,56.4,20.5,59.4,21.3,60"/>
	<path class="st0" d="M23.6,59.3c0.2,0.1,0.5,0,0.3-0.1c-2-1.6-1.9-3.6-2.2-3.8v0.1c-0.1-0.1-1.2,0-1.1,0.2
		C21,56.4,22.1,58.8,23.6,59.3"/>
	<path class="st0" d="M90.7,78.1c-0.3,0-0.6,0-0.9,0.1c-0.1,0-0.2,0.1-0.2,0.2c0,0.1,0.1,0.2,0.2,0.2h0c0.3,0,0.6,0,0.9-0.1
		c1.1-0.1,2-0.1,3.3-0.4c1.3-0.2,3.1-0.1,3.9,0c0.2,0,0.3,0,0.4,0c0.1,0,0.2-0.1,0.2-0.2c0-0.1-0.1-0.2-0.2-0.2c-0.1,0-0.2,0-0.4,0
		c-0.8-0.1-2.6-0.2-4,0C92.7,78,91.8,78.1,90.7,78.1"/>
	<path class="st0" d="M71.4,88.6c0-0.3-0.2-0.4-0.5-0.4c-1.5-0.1-1.5-0.1-3.1-0.1c-0.3,0-0.4,0.2-0.4,0.5c0,0.2,0.1,0.4,0.4,0.4h3.1
		C71.2,89,71.4,88.8,71.4,88.6"/>
	<path class="st0" d="M71.7,85.2c1.2-0.1,1-0.5,2.2-0.5c1.2,0,1,0,2.2,0.1c1.2,0,1.2,0.3,2.3,0.4c1,0,1,0,2.2,0.1
		c0.9,0.1,1-0.2,2-0.1c0.2,0,0.5-0.1,0.5-0.3s-0.2-0.5-0.4-0.5c-1.2-0.1-1.2,0-2.3,0c-1.2-0.1-1.2-0.1-2.3-0.2
		c-1.1,0-1.1-0.1-2.2-0.2h-2.3c-1.2,0-1.2,0.3-2.3,0.5c-1,0.1-1,0.1-2.2,0.2c-1,0-1-0.1-2,0c-0.2,0-0.4,0.3-0.4,0.6
		c0,0.2,0.3,0.4,0.5,0.4c1.2-0.1,1.2-0.2,2.2-0.3C70.5,85.2,70.5,85.3,71.7,85.2"/>
	<path class="st0" d="M97.4,84.4c-1.4-0.3-1.4-0.3-2.6-0.5s-1.4-0.4-2.6-0.4c-1.4,0-1.4,0.2-2.7,0.4c-1.2,0.2-1.2,0.3-2.3,0.4
		c-0.2,0.1-0.4,0.2-0.4,0.4c0.1,0.3,0.3,0.4,0.5,0.4c1.4-0.2,1.4-0.1,2.6-0.2c1.3-0.2,1.3-0.4,2.5-0.4c1.3,0,1.2,0.2,2.5,0.5
		c1.2,0.2,1.2,0,2.3,0.2c0.2,0,0.5,0,0.6-0.2C97.8,84.7,97.6,84.4,97.4,84.4"/>
	<path class="st0" d="M90.3,87.8c-1.4-0.1-1.3-0.1-2.6-0.2c-1.3-0.1-1.3-0.1-2.5-0.1c-1.4,0-1.4,0-2.6,0.1c-1.3,0.2-1.3,0.1-2.5,0.3
		c-1.2,0.1-1.2,0.1-2.2,0.3c-0.3,0-0.6,0.2-0.5,0.4c0,0.3,0.3,0.5,0.6,0.4c1.3-0.1,1.3-0.2,2.5-0.3c1.3-0.2,1.3-0.2,2.5-0.4
		c1.3-0.1,1.2-0.2,2.4-0.1c1.4,0.1,1.3,0.3,2.6,0.4c1,0.1,1,0.1,2.2,0.2c0.2,0,0.4-0.2,0.4-0.5C90.6,88.1,90.5,87.8,90.3,87.8"/>
	<path class="st0" d="M86.7,90.9c-1.4-0.1-1.4,0.1-2.6,0c-1.3-0.1-1.3-0.3-2.5-0.4c-1.3-0.1-1.3-0.3-2.5-0.3c-1.4,0-1.4,0.2-2.6,0.4
		c-1.3,0.1-1.3,0.1-2.5,0.2c-1.2,0.1-1.3,0-2.4,0.1c-0.2,0-0.5,0.3-0.5,0.6c0.1,0.2,0.4,0.2,0.6,0.2c1.3-0.1,1.3,0,2.6-0.1
		c1.3-0.1,1.3-0.2,2.5-0.3c1.3-0.2,1.2,0,2.4,0c1.4,0,1.3,0,2.5,0.1c1.3,0.1,1.3,0.2,2.5,0.3c1.2,0.1,1.2,0.2,2.4,0.3
		c0.2,0,0.4-0.3,0.4-0.5C87,91.2,86.9,90.9,86.7,90.9"/>
	<path class="st0" d="M32.3,81.2c0.6,0.2,1.5,0.2,2.2,0.2c1,0,2-0.1,2.1-0.1c0.2,0,0.4-0.2,0.4-0.5c-0.1-0.2-0.3-0.3-0.5-0.3
		c-0.1,0-1,0.1-2.1,0.1c-0.6,0-1.4-0.1-1.8-0.2c-0.3-0.1-0.5,0-0.6,0.2C31.9,80.9,32.1,81.1,32.3,81.2"/>
	<path class="st0" d="M31.6,83.6c-1.1-0.1-1.1-0.2-2.2-0.3c-1-0.1-1-0.3-2.2-0.3h-2c-1,0-1.2,0.2-2.1,0.3c-1,0.2-1,0.3-2,0.4
		c-0.2,0.1-0.4,0.3-0.3,0.6c0,0.2,0.2,0.3,0.4,0.2c1.1-0.1,1.2,0,2.2-0.1c1.1-0.2,0.9-0.5,2.1-0.5h2c1,0,0.9,0.2,2,0.3
		c1.1,0,1.1,0.1,2,0.2c0.3,0,0.6-0.2,0.6-0.4C32.1,83.9,31.8,83.6,31.6,83.6"/>
	<path class="st0" d="M17.4,68c-0.1,0-0.2,0.3-0.1,0.6l0.1,0.6c0,0.4,0.2,0.6,0.3,0.6c0.1,0,0.2-0.3,0.1-0.6l-0.1-0.6
		C17.7,68.2,17.5,68,17.4,68"/>
	<path class="st0" d="M17.4,72.7l0.1-0.1c0.2-0.1,0.3-0.3,0.3-0.6v-0.1c0-0.4-0.2-0.6-0.4-0.8c-0.5-0.3-1-0.2-1.1-0.1l-0.1,0h-0.1
		C16,71,16,71.4,16,71.7v1c0,0.3,0,1.3,0.1,1.3s0.2-0.1,0.2-0.2l0-0.1c0-0.1,0.1-0.3,0.2-0.4c0.1-0.1,0.2-0.2,0.4-0.2l0.3,0.7
		c0.3,0.2,0.6,0.3,0.7,0.2c0-0.1,0-0.2-0.1-0.3C17.8,73.6,17.3,72.7,17.4,72.7 M17.2,72.1c-0.1,0.1-0.4,0.1-0.5,0h-0.1v-0.3
		c0-0.2,0.2-0.5,0.4-0.5l0.1,0.1c0.1,0.1,0.2,0.2,0.2,0.4C17.3,71.9,17.3,72.1,17.2,72.1"/>
	<path class="st0" d="M6.3,71.7c0,0-1.1-0.2-2.1-0.2c-0.7,0-1.5,0.4-2,0.4C2,72,1.8,72.1,1.8,72.4c0,0.2,0.2,0.4,0.5,0.4
		c0.6,0,1.2-0.5,2-0.5c1.1,0,1.9,0.3,1.9,0.3c0.3,0,0.5-0.2,0.6-0.4C6.8,71.9,6.5,71.7,6.3,71.7"/>
	<path class="st0" d="M2.3,70.3C2.9,70,3.5,70,4.1,70c1.1-0.1,1.8,0.3,1.9,0.3c0.2,0,0.5-0.2,0.5-0.4c0-0.3-0.2-0.5-0.5-0.5
		c0,0-0.9-0.3-2-0.3c-0.6,0-1.6,0.2-2.1,0.5c-0.2,0.1-0.3,0.4-0.1,0.6C1.9,70.4,2.1,70.5,2.3,70.3"/>
	<path class="st0" d="M6.4,79.1c0.9,0.1,0.9,0.1,1.9,0.2c0.2,0,0.5-0.7,0.5-0.9c0-0.2-0.2,0.1-0.4,0c-1.1-0.1-1.1-0.1-2.1-0.2
		c-1-0.1-1.1-0.1-2-0.1s-0.9,0.4-1.9,0.5c-0.2,0.1-0.4,0.3-0.3,0.5c0,0.2,0.2,0.3,0.5,0.3c1-0.2,0.9-0.4,2-0.4
		C5.6,78.9,5.5,78.9,6.4,79.1"/>
	<path class="st0" d="M12.1,85.4c1.1,0.1,1.4-0.2,2.4,0.1c0.9,0.2,0.9,0.4,1.9,0.6c0.2,0.1,0.5-0.2,0.5-0.4c0.1-0.2,0-0.5-0.3-0.6
		c-1.1-0.2-1.1-0.3-2.2-0.6c-1.2-0.2-1.6,0.2-2.8,0.1c-1.2,0-1.2-0.2-2.3-0.2c-1.2,0-0.8,0.4-1.9,0.4c-1.1-0.1-1.1-0.1-2-0.2
		C5.2,84.6,5,84.8,5,85c0,0.3,0.2,0.5,0.4,0.5c1.3,0,1.3-0.1,2.4,0c1.1,0,0.8-0.1,2-0.1C11,85.5,11,85.4,12.1,85.4"/>
	<path class="st0" d="M11.2,67.2c0.1,0,0.2-0.2,0.2-0.6v-0.8c0-0.3,0.1-0.7,0.1-0.8h0.1c0.2,0,0.6,0.3,0.6,0.6
		c0,0.2-0.1,0.3-0.1,0.3c-0.3,0.1-0.5,0.2-0.5,0.4c0,0.1,0.3,0.1,0.6,0c0,0,0.2-0.1,0.4-0.3c-0.1,0.3-0.1,0.4-0.1,0.4
		c0,0.3,0.1,0.6,0.2,0.6s0.2-0.2,0.3-0.6c0,0,0.3-1.6,0.7-1.6c0.5,0,0.6,1.4,0.6,1.4c0.1,0.3,0.2,0.6,0.3,0.6c0.1,0,0.2-0.3,0.2-0.6
		c0,0,0-1.8-1.2-1.8c-0.6,0-0.9,0.6-1.1,1.1c0-0.5-0.6-1-1.1-1c-0.3,0-0.3,0.1-0.3,0.1c-0.2,0.3-0.3,0.8-0.3,1.2v0.8
		C11,67,11.1,67.2,11.2,67.2"/>
	<path class="st0" d="M14.2,66c0-0.1-0.2-0.2-0.4-0.2c-0.2,0-0.4,0.1-0.4,0.2c0,0.1,0.2,0.2,0.4,0.2C14,66.2,14.2,66.1,14.2,66"/>
	<path class="st0" d="M15.4,66.8c0.1,0,0.3-0.1,0.5-0.3c0.3-0.2,0.6-0.3,0.7-0.1c0.2,0.1,0.4,0.2,0.5,0.1c0.1,0,0-0.3-0.2-0.4
		c-0.1-0.2-0.1-0.5,0.2-0.8c0.2-0.2,0.3-0.5,0.3-0.5c-0.1-0.1-0.4,0-0.6,0.2c-0.3,0.3-0.6,0.3-0.8,0.1c-0.2-0.2-0.4-0.3-0.5-0.2
		c-0.1,0.1,0,0.3,0.2,0.5c0.2,0.2,0.1,0.6-0.1,0.8C15.4,66.4,15.3,66.7,15.4,66.8"/>
	<path class="st0" d="M13.1,68.3c0-0.2-0.3-0.3-0.6-0.3h-0.8c-0.3,0-0.6,0.1-0.6,0.3c0,0.1,0.3,0.2,0.6,0.2h0.8
		C12.8,68.5,13.1,68.4,13.1,68.3"/>
	<path class="st0" d="M11.7,69.3v0.3c0,0.3,0.1,0.6,0.2,0.6s0.2-0.3,0.2-0.6v-0.3c0-0.3-0.1-0.6-0.2-0.6S11.7,69,11.7,69.3"/>
	<path class="st0" d="M13.6,68.1c-0.1,0-0.2,0.3-0.2,0.6v0.8c0,0.3,0.1,0.6,0.2,0.6c0.2,0,0.3-0.3,0.3-0.6v-0.8
		C13.9,68.4,13.8,68.1,13.6,68.1"/>
	<path class="st0" d="M14.5,67.9h-0.1v0.8v0.8v0.7h0.1c0,0.1,0.1,0.1,0.1,0.1c0.1,0,0.5,0,1-0.1l0.1,0l0,0c0.4-0.1,0.7-0.2,0.9-0.5
		c0.2-0.1,0.2-0.3,0.2-0.4v-0.1c0-0.3-0.1-0.5-0.3-0.6l-0.1-0.1c-0.2,0-0.2-0.1-0.2-0.2c0-0.1,0.1-0.2,0.1-0.2
		c0-0.1-0.1-0.2-0.1-0.3c-0.1-0.1-0.2-0.2-0.3-0.3h-0.2l0,0c-0.1,0-0.2,0-0.3,0c-0.1,0-0.1,0-0.2,0.1l-0.1,0
		C14.7,67.7,14.5,67.8,14.5,67.9 M15.4,67.9h0.2h0.1V68v0.1c0,0.2-0.3,0.3-0.4,0.3c-0.1,0.1-0.1,0.2-0.1,0.3c0,0.1,0.2,0.2,0.3,0.1
		c0.1,0,0.4,0,0.6,0.1c0.1,0.1,0.2,0.2,0.2,0.3v0.1c0,0,0,0.1-0.1,0.1c0,0.1-0.1,0.1-0.2,0.2c-0.2,0.1-0.4,0.2-0.4,0.2l-0.1,0.1
		l-0.1,0c-0.3,0-0.6-0.2-0.6-0.6v-0.4C14.8,68.4,15.1,68.1,15.4,67.9"/>
	<path class="st0" d="M13.2,73c0.1,0.2,0.2,0.3,0.3,0.3c0.2-0.1,0.2-0.4,0.1-0.7l-0.1-0.2c-0.1-0.3-0.2-0.9-0.2-1h-0.1h-0.1
		c-0.1,0-0.2,0.4-0.3,0.5c-0.1,0.2-0.5,0.4-0.6,0.2c-0.1-0.1-0.3-0.7-0.4-0.7h-0.1c-0.1,0.1-0.2,0.8-0.3,1.3l-0.1,0.5
		c-0.1,0.4-0.1,0.7,0,0.7s0.3-0.1,0.4-0.4c0-0.2,0.3-0.8,0.4-0.7c0.1,0.1,0.2,0.2,0.2,0.2h0.1h0.1c0,0,0.1-0.1,0.2-0.2
		C12.8,72.5,13.2,72.8,13.2,73"/>
	<path class="st0" d="M15.2,71h-0.1H15h-0.1c0,0.1-0.1,0.1-0.2,0.4l-0.5,0.9c-0.1,0.4-0.3,0.9-0.2,0.9c0.1,0.1,0.2,0,0.2,0
		c0.1-0.1,0.4-0.6,0.4-0.7c0,0.1,0.2,0.1,0.3,0.2c0.2,0,0.3,0.2,0.4,0.4c0,0.3,0.2,0.5,0.3,0.4c0.1,0,0.1-0.3,0.1-0.6l-0.3-1.5
		C15.4,71.1,15.2,71.1,15.2,71 M14.9,72.2c-0.1,0-0.1-0.1-0.1-0.2c0.1,0,0.1-0.1,0.1-0.1l0.1-0.1C15.1,71.9,15,72.2,14.9,72.2"/>
	<path class="st0" d="M11.8,76.9c0.3,0,0.6-0.1,0.6-0.3c-0.1-0.1-0.2-0.2-0.4-0.2c0,0-0.5-0.1-0.6-0.3c-0.1-0.1-0.2-0.2-0.1-0.4
		c0.1-0.7,0.6-0.5,0.6-0.5c0.3,0,0.4-0.3,0.4-0.4c0-0.2-0.3-0.2-0.6-0.2c0,0-0.8,0.2-0.9,1.1c0,0.4,0.1,0.6,0.3,0.8
		C11.5,77,11.8,76.9,11.8,76.9"/>
	<path class="st0" d="M14.2,74.5h-1.1c0,0-0.1,0.1-0.1,0.2c0,0.2-0.2,1.3-0.3,1.9c0,0,0,0.1,0.1,0.1v0.1c0.1,0,0.4,0,0.7,0.1h0.1
		c0.4,0,0.6-0.1,0.6-0.2c0.1-0.1-0.1-0.2-0.3-0.2c-0.2-0.1-0.7-0.4-0.6-0.7v-0.1c0.1,0,0.2,0.1,0.3,0.1c0.3,0.1,0.6,0,0.6-0.1
		c0-0.1-0.1-0.3-0.3-0.3h-0.5c0.1-0.2,0.3-0.5,0.4-0.5c0.2,0.1,1,0,1-0.1C14.9,74.6,14.6,74.5,14.2,74.5"/>
	<path class="st0" d="M20.3,66.7c0.3,0.1,0.5,0.1,0.5,0.1c0.4,0,0.6-0.1,0.6-0.2s-0.1-0.2-0.3-0.2c-0.2,0-0.5-0.1-0.5-0.1v-0.1v-0.6
		c0.2,0.1,0.5,0.1,0.6,0.1c0.2,0,0.3-0.1,0.4-0.2c0-0.1-0.2-0.2-0.4-0.2c-0.1,0-0.3,0-0.5,0c0.1-0.2,0.4-0.4,0.6-0.4
		c0.2,0,0.5,0,0.5-0.1c0-0.2-0.3-0.3-0.6-0.3c-0.3-0.1-0.7-0.1-0.8-0.1v0.1C19.9,66.5,20.2,66.6,20.3,66.7"/>
	<path class="st0" d="M22.6,66c0.2,0.3,0.3,0.6,0.4,0.7h0.1c0.1-0.1,0.3-0.4,0.4-0.7l0.3-0.3c0.1-0.3,0.2-0.6,0.1-0.7
		c-0.1,0-0.3,0.1-0.4,0.2c-0.1,0.2-0.5,0.5-0.6,0.2c0,0-0.1-0.1-0.1-0.3c-0.1-0.2-0.3-0.3-0.4-0.2c-0.1,0-0.1,0.3,0,0.6L22.6,66z"/>
	<path class="st0" d="M24.8,66.1c0.1-0.1,0.2-0.2,0.2-0.2c0,0.1,0.2,0.2,0.4,0.2c0.2,0,0.3,0.1,0.3,0c0,0,0.1,0.1,0.1,0.3
		c0.1,0.1,0.2,0.2,0.3,0.1c0.1,0,0.2-0.1,0.2-0.1c0-0.1,0.1-0.1,0.2-0.1c0.1,0,0.2,0,0.2-0.2c0-0.1,0.2-0.4,0.3-0.1
		c0,0.2,0.2,0.5,0.2,0.5h0.1h0.1c0.1-0.1,0.2-0.4,0.3-0.7l0.1-0.3c0.1-0.3,0.1-0.6,0-0.6c-0.2-0.1-0.3,0-0.3,0.1
		c0,0.1-0.3,0.4-0.4,0.1c-0.1-0.3-0.2-0.6-0.3-0.7h-0.1h-0.1c0,0.1-0.1,0.5-0.2,0.8l-0.1,0.5c0,0.3-0.2,0.3-0.3,0L26,65.4
		c-0.2-0.3-0.3-0.6-0.4-0.7h-0.1c-0.1,0-0.3,0.3-0.5,0.6l-0.3,0.4c-0.2,0.3-0.3,0.5-0.2,0.6C24.5,66.4,24.7,66.3,24.8,66.1
		 M25.4,65.5c0.1,0,0.1,0.2,0,0.2c-0.1-0.1-0.1-0.2-0.1-0.3C25.4,65.4,25.4,65.4,25.4,65.5"/>
	<path class="st0" d="M21.3,68.5c0.1,0.1,0.1,0.2,0.2,0.2c0,0,0.3,0.2,0.3,0.4c0,0.1-0.2,0.5-0.5,0.6L21,69.6
		c-0.2,0-0.3-0.2-0.3-0.5c-0.2-1,0.5-1.2,0.5-1.2c0.3,0,0.5-0.2,0.5-0.3c0-0.1-0.3-0.1-0.6,0c0,0-1,0.4-0.8,1.6
		c0,0.4,0.2,0.7,0.5,0.8c0.5,0.3,1.4,0.1,1.4,0.1l0.1-0.1v-0.8v-0.8h-0.1h-0.5C21.5,68.3,21.3,68.4,21.3,68.5"/>
	<path class="st0" d="M23.1,67.5c0,0-0.1,0.4-0.1,0.7v1c0,0.3,0.1,0.6,0.1,0.6V70h0.1H24c0.3-0.1,0.5-0.2,0.5-0.3
		c0-0.1-0.1-0.2-0.3-0.1c-0.1,0-0.6-0.1-0.6-0.2s0.2-0.4,0.4-0.4c0.2,0,0.4-0.1,0.4-0.2c0-0.1-0.2-0.2-0.4-0.2s-0.4-0.1-0.4-0.2
		c0-0.2,0.4-0.5,0.5-0.5c0.2,0,0.3-0.1,0.3-0.2c0-0.1-0.3-0.2-0.5-0.2C23.5,67.5,23.2,67.5,23.1,67.5"/>
	<path class="st0" d="M25.2,67.4c-0.1,0-0.2,0.3-0.2,0.7v0.7v0.7c0,0.1,0.4,0.2,0.7,0.2c0.3,0,0.5,0,0.5-0.1
		c0.1-0.2-0.1-0.3-0.2-0.3c-0.2,0-0.6-0.3-0.6-0.7v-0.5C25.4,67.7,25.3,67.4,25.2,67.4"/>
	<path class="st0" d="M27.2,69.8c0.1,0,0.2-0.3,0.2-0.7v-1.2c0-0.3-0.2-0.4-0.3-0.4c-0.1,0-0.2,0-0.2,0.4v1.3
		C27,69.5,27.1,69.8,27.2,69.8"/>
	<path class="st0" d="M21.9,72.3c-0.3,0.1-0.5,0-0.5,0c-0.4-0.1-0.7-0.1-0.7,0c-0.1,0.2,0.2,0.4,0.5,0.5c0,0,0.4,0.1,0.8-0.1
		c0.2-0.1,0.3-0.2,0.4-0.4c0.1-0.5-0.5-0.7-0.8-0.8c-0.3-0.1-0.6-0.2-0.6-0.4c0.2-0.2,0.5-0.1,0.5-0.1c0.3,0,0.6-0.1,0.7-0.2
		c0-0.1-0.3-0.3-0.6-0.3c0,0-0.5-0.1-0.9,0.3c-0.1,0.1-0.1,0.2-0.1,0.4c0,0.4,0.5,0.5,0.8,0.7c0.5,0.1,0.6,0.2,0.5,0.3
		C21.9,72.2,21.9,72.3,21.9,72.3z"/>
	<path class="st0" d="M23.7,71c0,0.2-0.1,0.5-0.1,0.7v0.1c0,0.4,0.1,0.7,0.2,0.7s0.2-0.3,0.2-0.7v-0.1c0-0.2,0-0.5-0.1-0.7
		c0.4,0,0.6,0,0.6-0.2c0-0.1-0.3-0.2-0.6-0.2h-0.2c-0.3,0-0.6,0.1-0.6,0.2c0,0.1,0.1,0.3,0.4,0.3L23.7,71z"/>
	<path class="st0" d="M25.6,70.5c-0.6,0.5-0.5,1.3-0.5,1.3c0,0.3,0.1,0.6,0.2,0.6c0.1,0,0.2-0.3,0.3-0.6c0,0-0.2-0.6,0.2-1
		c0.2-0.1,0.3-0.1,0.4-0.1c0.2,0,0.3,0.1,0.4,0.2l0.1,0.1c0,0-0.2,0.1-0.5,0.1c-0.3,0-0.5,0.1-0.5,0.2c0,0.1,0.2,0.2,0.5,0.2
		c0.3,0,0.5,0,0.5-0.1c0-0.2,0-0.1,0.1,0.1c0,0.2,0,0.6,0.1,0.6c0.2,0,0.4,0.3,0.5,0c0,0,0-0.9-0.4-1.6c-0.2-0.2-0.4-0.3-0.7-0.4
		C26.1,70.2,25.9,70.3,25.6,70.5"/>
	<path class="st0" d="M22.7,73.1c-0.1,0.1-0.3,0.3-0.4,0.5c-0.2,0.1-0.6,0.4-0.8,0.2c-0.1-0.1-0.3-0.3-0.4-0.4h-0.1v0.1
		c-0.1,0.1-0.1,0.4-0.1,0.8v0.8c0,0.4,0.1,0.6,0.2,0.6s0.2-0.1,0.2-0.4c0-0.2,0.1-1,0.2-0.8c0,0.1,0.1,0.2,0.2,0.2h0.1
		c0.1,0,0.2-0.1,0.3-0.2c0-0.1,0.4-0.2,0.3,0.1v0.6c0,0.3,0.1,0.5,0.2,0.5c0.1,0,0.2-0.3,0.2-0.6l0.1-1.2v-0.8h-0.1L22.7,73.1z"/>
	<path class="st0" d="M24.2,74.5c0.1,0,0.3,0,0.4-0.1c0-0.1-0.1-0.3-0.3-0.3c-0.2-0.1-0.3-0.1-0.4,0v-0.2c0-0.1,0.3-0.4,0.5-0.4
		c0.3,0,0.5-0.1,0.5-0.2c0-0.1-0.3-0.2-0.6-0.2c-0.3-0.1-0.6,0-0.6,0c-0.1,0-0.2,0.4-0.2,0.7l-0.2,1.2v0.8l0.1,0.1h0.5
		c0.3,0,0.5-0.1,0.5-0.2s-0.1-0.2-0.2-0.2s-0.5-0.2-0.4-0.3C23.7,74.9,24,74.3,24.2,74.5"/>
	<path class="st0" d="M26.3,73.7c-0.1,0-0.2,0.1-0.2,0.2c0,0.1-0.2,0.5-0.3,0.3c0-0.3-0.1-0.5-0.2-0.6h-0.1h-0.1
		c0,0.1-0.2,0.4-0.2,0.7L24.9,75c-0.1,0.3-0.1,0.6,0,0.6c0.2,0.1,0.3,0,0.3-0.1c0.1-0.2,0.3-0.5,0.3-0.3c0.1,0.3,0.2,0.6,0.3,0.7H26
		h0.1c0-0.1,0.1-0.4,0.2-0.8l0.1-0.7C26.5,74,26.5,73.7,26.3,73.7"/>
	<path class="st0" d="M27.7,74.6c-0.1-0.1-0.3-0.2-0.3-0.3c-0.1-0.2,0-0.2,0-0.2c0.3-0.2,0.5-0.4,0.5-0.5s-0.3-0.1-0.6,0
		c0,0-0.5,0.2-0.4,0.8c0.1,0.3,0.4,0.5,0.6,0.6c0.3,0.2,0.3,0.2,0.2,0.3c-0.1,0.3-0.3,0.2-0.3,0.2c-0.3-0.1-0.6-0.1-0.7,0
		c0,0.1,0.2,0.2,0.5,0.4c0,0,0.6,0.1,1-0.4C28.3,75.1,27.9,74.8,27.7,74.6"/>
	<path class="st0" d="M64.4,62.5c-0.1-0.2-0.4,0-0.6,0.1c-0.2,0-0.8-0.3-0.7,0l1,2.6c0.1,0.3,0.2,0.5,0.4,0.4
		c0.2-0.1,0.3-0.4,0.2-0.6L64.4,62.5z"/>
	<path class="st0" d="M2.4,60.6l3.4-3.4l0.1-0.3l0.3,0.2c0.2,0.1,0.3,0.3,0.8,0.3c0.4-0.1,0.8-0.2,1-0.3c0.5-0.2,0.6-0.2,0.8,0.1
		l0.9,1.1c0.7,1.3,1.5,2.6,2.1,3.3l1.3,1.4C11.2,63.1,9.8,63,9.8,63c-0.1,0-0.3,0.1-0.3,0.2c-0.1,0-0.2,0.2-0.2,0.3
		c0,0,0.5,5,0.3,7.5c-0.2,2.4-0.4,4.9-0.4,7.3c0,0.9-0.3,3.3,0.8,3c1.4-0.4,2.7-0.7,4.2-0.7c0.9-0.1,2,0.1,3.1,0.4
		c0.6,0.2,0.8,0.8,1.5,0.8c0.6-0.1,1.6-0.8,2.2-0.9s1.6,0,2.3,0h0.9c1.3,0,2.8,0.2,3.8,0.2c0.3-0.1,0.8-0.1,1.3-0.1
		c0.2-0.1,0.3-0.1,0.4-0.1c0.6-0.2,1.3-0.4,1.4-1c0.2-1,0-2.3,0-3.5c0-1.6,0-3.1-0.1-4.7c0.6,0.3,1.6,0.8,2.3,1.7
		c1.3,1.4,2.5,2.2,4.7,2.2c1,0.1,1.9,0.1,2.5,0.1c0.6,0,1,0,1.2,0l0.1,0l0.1-0.1c0.1,0.4,0.1,0.6,0,0.7c-0.2,0.3-0.8,0.5-1.3,0.8
		c-0.8,0.3-1.7,0.7-1.9,1.4c-0.1,0.4,0,0.8,0.4,1.3c0.3,0.4,0.7,0.6,1,0.6c0.1,0,0.2,0,0.2-0.1c0,0.1,0.1,0.2,0.2,0.3
		c0.3,0.4,0.8,0.6,1.6,0.6c0.2,0,0.3,0,0.5,0c0.4,0,0.8-0.1,1.2-0.2c0.8,0,1.7-0.4,2.5-0.5c0.6-0.1,1.4-0.1,2-0.2
		c0.4-0.1,1.4-0.4,1.6-0.7c-0.2,0-0.5-0.2-0.7-0.2c0.2-0.1,0.4-0.2,0.6-0.3c-0.2-0.1-0.5-0.1-0.8-0.1c0.6,0,1.7-0.1,2.1-0.4
		c-0.4-0.2-0.9-0.4-1.5-0.3c0.4-0.3,0.9-0.2,1.4-0.4c-0.5-0.1-1-0.1-1.5-0.5c-0.2-0.1-0.4-0.4-0.6-0.5l0.1,0
		c0.6,0.2,1.3,0.5,2.4,0.5c0.1,0,0.2,0,0.4,0c0.9,0,1.6-0.1,2.1-0.2c0.5-0.1,0.9-0.1,1.4-0.1c-0.4,0.8-0.4,1.7-0.4,1.7
		c0,0.2,0.2,0.3,0.4,0.3h0c-0.1,0.2-0.2,0.4-0.2,0.6c0.1,0.7,0.9,1,1.2,1c0.6,0.2,1.1,0.3,1.6,0.3c0.7,0,1.2-0.1,1.7-0.3
		c1.8,0,3.6-0.1,5.5,0c1.3,0,2.4,0.1,3.7,0.3c1,0.2,2.2,0.8,3.3,0.8c-0.7-0.6-1.5-0.7-2.3-0.8c1.2,0,2.3,0.3,3.5,0.3
		c-0.4-0.7-1.6-0.9-2.4-0.8c0.6-0.1,1.2-0.2,1.8-0.2c-0.5-0.4-1.2-0.5-1.8-0.5c0.4,0,0.8-0.1,1.2-0.1c-0.8-0.3-1.6-0.5-2.5-0.7
		c0.9-0.2,1.7-0.3,2.6-0.3c0.9,0,1.8,0.2,2.7,0.4c1.2,0.2,2.4,0.5,3.9,0.5c0.3,0,0.5,0,0.8,0c0.1,0,0.1-0.1,0.2-0.1
		c-0.1,0.6,0.1,1.1,0.1,1.1c0,0.1,0.1,0.1,0.2,0.2l0.1,0l0,0C80,80.7,80,80.9,80,81.1c0.2,0.4,0.6,1.2,2,1.2h0.2
		c1.2,0.6,3.6,0.1,4.7,0c0.4-0.1,1.8-0.4,2.1-0.2c-0.4-0.2-0.9-0.3-1.3-0.5h1.2c-0.2-0.2-0.5-0.4-0.7-0.5c0.6-0.1,1.4-0.1,1.8-0.5
		c-0.2-0.3-0.6-0.5-1-0.5c0.6-0.3,1.6-0.5,0.4-1.2c-0.4-0.2-0.8-0.3-1.2-0.3c0.4-0.2,0.7-0.5,1-1c0.4-0.9-0.1-1.8-0.7-2.5
		c-0.4-0.6-0.8-1.1-0.8-1.6c0-1.4-0.4-2.6-0.4-2.7c0-0.1-0.1-0.2-0.2-0.2c0.2-0.4,0.3-0.8,0.1-1.4c-0.3-0.7-1.4-1.5-3-2.7
		c-1.2-0.9-2.6-1.8-3.7-2.9c-1.8-1.8-1.6-5.2-1.4-6.5c0.4,0.5,0.9,1,1.4,1.6c1.2,1.5,2.6,3.3,4.1,4.5c1.2,1,2.7,1.6,4.1,1.6
		s2.7-0.5,3.6-1.5c2.1-2.2,2.4-7.1-3.8-13.5c-1.9-1.9-2.2-3.9-2.2-5.2c0.1-1.8,0.8-3,1.2-3.4c0.4-0.4,0.9-0.4,1-0.2s0,0.4-0.1,0.7
		c-0.7,1-0.5,1.5-0.2,2.2c0.1,0.2,0.2,0.5,0.3,0.8c0.4,1,0.2,1.4,0.2,1.4c-0.1,0.2,0,0.4,0.2,0.5c0.2,0.1,0.4,0,0.5-0.1l0.6-0.9
		c0.1,0.2,0.1,0.4,0.1,0.4c0.1,0.5,0.2,0.6-0.1,1.3c-0.2,0.6,0,0.6,0.1,1c0.1,0.4,1.2,0.9,1.2,0.9s-0.1-0.8-0.2-1.5
		c0-0.6,0.9-0.8,1-0.8c0,0,0,0.1,0.1,0.2c0.3,0.4,0.6,0.6,1.2,0.8l0.1,0.1c0,0.1,0.1,0.1,0.2,0.2c0.2,0.1,0.4,0,0.5-0.2
		c0.1-0.3-0.1-0.6-0.3-0.8c-0.2-0.2-0.5-0.5-0.5-0.9c0-0.9-0.4-2.6-1.5-3.4c-0.2-0.1-0.2-0.5-0.1-1c0.1-1.2,0.2-2.9-2.9-3.4
		c-1.8-0.2-3.5,0.7-4.5,2.6c-1.4,2.5-1.5,6.6,1.4,10.1c4.5,5.4,5.3,8.9,4.1,10c-0.9,0.8-3.1,0.3-5.1-1.9c-1.1-1.1-2.3-2.6-3.4-3.9
		c-2-2.4-4.1-4.9-6.1-6.3c-2.6-1.8-6.2-2.1-9.5-2.1c1.3-0.4,1.5-1.3,1.6-1.4c0-0.1,0-0.3-0.2-0.4c0.2,0,0.3,0,0.5,0
		c3.9,0.1,4.4-0.8,4.5-1.2c0-0.2-0.1-0.4-0.3-0.4c-0.2,0-0.4,0.1-0.4,0.3c0,0-0.4,0.7-3.8,0.6c-3.9-0.1-7.1,0.3-7.1,0.3
		c-0.2,0-0.3,0.2-0.3,0.4c0,0.2,0.2,0.3,0.4,0.3h0.1c0,0,2.7-0.3,6.1-0.3c-0.1,0-0.1,0.1-0.1,0.2c0,0-0.3,1-2,1
		c-1.9-0.1-4,0.3-4.1,0.3c-0.1,0-0.1,0.1-0.2,0.1c0-0.3-0.1-0.7-0.2-1c-0.1-0.3-0.2-0.5-0.2-0.7c0.1-0.1,0.5-0.5,0.8-0.7
		c0.2-0.2,0.4-0.3,0.6-0.5c0.1-0.2,0.4-0.3,0.6-0.5c0.1-0.1,0.2-0.1,0.3-0.2c0.1,0.1,0.2,0.1,0.3,0.1h0.1c0,0,2-0.3,7.8-0.1
		c3.2,0.2,5.2-0.2,6-0.9c0.3-0.3,0.3-0.6,0.3-0.7c0-0.2-0.2-0.4-0.4-0.4c-0.2,0-0.4,0.2-0.3,0.4c0,0-0.3,1.2-5.5,0.9
		c-4.6-0.2-6.8,0-7.6,0.1c0.1-0.4,0.1-0.6,0-0.8c0-0.2-0.1-0.4,0.1-0.6L63,41c0.1,0.1,0.2,0.1,0.3,0.1l0.1,0
		c1.8-0.5,3.5-0.4,6.1-0.2c2.1,0.1,4.6,0.2,8.1,0.1c5.1-0.1,5.1-2.5,5.1-2.6l0-0.1c3.3-0.6,3.4-2.4,3.4-2.5c0-0.2-0.1-0.4-0.3-0.4
		s-0.4,0.1-0.4,0.3c0,0-0.2,1.7-3.9,2c-3.8,0.4-7.5,0.2-10.5,0c-3-0.1-5.5-0.3-6.9,0.2l0,0c0.1-0.1,0.1-0.2,0.2-0.3
		c0.3-0.4,0.6-0.9,0.6-1.4c0.2-0.1,2.4-0.5,15.2,0c0.1,0,0.2,0,0.3,0c6.2,0,8.3-3,8.3-3.1c0.1-0.2,0.1-0.4-0.1-0.5
		c-0.1-0.1-0.2-0.1-0.2-0.1c2.6-0.5,4.6-1.2,5.2-1.9c0.2-0.2,0.3-0.4,0.2-0.7c-0.1-0.6-0.6-0.9-1.5-0.9c-0.9,0-2.1,0.2-3.7,0.5
		c-2.5,0.4-5.8,1-9.5,1c-1.7,0-3.4-0.1-4.9-0.4c-2.6-0.4-4.9-1-7.2-1.7c-3.7-1-7.1-1.9-11.1-1.9c-2.7,0-5.4,0.4-8.3,1.3
		c-1.5,0.4-2.5,1.5-2.4,2.7c0.1,1.2,1.3,2.1,3.3,2.4c0.5,0.1,0.9,0,1.4-0.1l0,0c0,0,0.5,0.3,1,0.9c0.2,0.6,0.5,0.9,0.6,1.7
		c0,0.7-0.1,1.3-0.4,1.9c-0.5,1.2-1.5,1.7-2.4,2.4c-0.2,0.1-0.6,0.3-1,0.5c-0.1,0-0.1,0.1-0.2,0.1l0,0.1c-0.8,0.5-1.7,1.2-1.8,2.2
		c-0.1-0.1-0.3-0.1-0.4-0.2c-1.6-0.6-0.9-1.8-2-2.6c-0.6-0.5-1.3-0.9-1.9-1.5c0-0.3,0.1-0.7,0.1-1.1c0-6.3-5.4-11.4-12-11.4
		c-6.5,0-11.9,5.1-11.9,11.4c0,5.8,4.6,10.6,10.5,11.3c0,0.1,0,0.2,0,0.3c-0.9-0.7-2.2-0.3-3.2-0.4c-1.5-0.1-3.4-0.5-4.8-1.2
		c-1.4-0.7-2.8-2.1-3.8-3.3c-0.3-0.3-1.1-1.8-1.6-1.7c-0.1,0-0.1,0-0.2,0.1c0-0.3,0-0.7,0-1c0.1-2.6-0.6-4.6-1.9-5.4
		c-0.9-0.5-1.9-0.4-2.8,0.2c-1,0.7-2,2.3-1.7,4.7c1.5,10.5,10,20.7,11.3,22.2c-0.1,0-0.1,0-0.2,0.1c-0.4-0.4-1.4-0.8-3.7-0.4
		c-0.4,0-0.7,0.1-1.1,0.1c-0.1-0.1-0.2-0.3-0.5-0.5L12.9,61c-0.6-0.6-1.4-2-2-3.2l-0.8-2c-0.6-0.9-1.6-0.3-2.1-0.1
		c-0.2,0.1-0.5,0.2-0.7,0.2c-0.3,0-0.4-0.1-0.6-0.2c-0.4-0.2-0.9-0.5-1.5,0.1l-3.2,4.1c-0.1,0.1-0.2,0.4,0,0.5
		C2,60.6,2.6,60.4,2.4,60.6 M92.5,45.9c0,0.1,0,0.2,0,0.3c0,0.3,0.1,0.5,0.1,0.7c-0.1-0.1-0.2-0.2-0.2-0.4
		C92.5,46.3,92.5,46.1,92.5,45.9 M18,80c-0.4,0.2-0.7-0.1-1-0.2c-0.4-0.1-0.8-0.1-1.2-0.2c-0.5-0.1-1.1-0.1-1.6-0.1
		c-0.5,0-1.1,0.1-1.6,0.1c-0.6,0.1-0.8,0.1-1.5,0.3c-0.3,0.1-0.6,0.2-0.9,0.2V80c0-0.4,0.9-0.7,1.3-0.8c0.5-0.3,1.3-0.6,1.9-0.6
		c0.3,0,0.5,0.1,0.8,0.1c0.7,0,1.6,0.2,2.4,0.4C16.9,79.2,18.9,79.6,18,80 M29.3,79.7c-1.4-0.3-2.7-0.3-4.1-0.3h-0.9
		c-1.3-0.1-2.7-0.1-3.8,0.4c-0.3,0.2-0.7,0.3-1.2,0.2c-0.2,0-0.3-0.1-0.3-0.2c0.1-0.2,1.4-0.7,1.6-0.8c0.9-0.3,2-0.7,3-0.6h0.7
		c1.6,0.2,3.6,0.4,4.3,0.5c0,0.1,0,0.1,0.1,0.2l0.6,0.5l0.1,0.1C29.4,79.7,29.3,79.7,29.3,79.7z M30.2,67.9v11.3l-0.4-0.4l-0.3-0.2
		v-0.1V67.7c-0.1-0.1-0.1-0.3-0.1-0.5V67v-0.4c0-0.3-0.2-1.4,0-1.6c0.1-0.1,0.2-0.1,0.3-0.1h0.1C30.6,65.4,30.2,67.3,30.2,67.9
		 M62.2,79.2c-0.3,0-0.5,0.1-0.8,0.1c-0.6,0.1-1,0.3-1.5,0.4c-1,0.4-1.9,0.7-3.4,0.2c-0.5-0.2-0.7-0.3-0.7-0.4c0-0.2,0.6-0.7,1.3-1
		c0.2-0.1,0.3-0.3,0.2-0.5c-0.1-0.2-0.3-0.3-0.5-0.2c-0.2,0.1-0.8,0.4-1.2,0.8l0,0c0,0-0.1-1,0.5-1.6c0.3-0.2,1.8-0.3,2.8-0.4
		c1.7-0.1,2.7-0.2,3.1-0.6c0.2-0.3,0.3-0.7,0.6-1.2c0.4-1.2,1.1-3,2.4-4.1c0.1-0.1,0.1-0.1,0.1-0.2s0-0.2-0.1-0.3
		c-1.2-1.5-3.1-8.1-3.1-8.1l-0.1-0.1c2.3-0.6,4-0.9,4.5-1l-0.5,0.3c-0.1,0-0.1,0.1-0.1,0.2c0,0.1,0.1,0.1,0.2,0.1c0,0,0.6,0,0.9,0.4
		c0.3,0.3,0.4,0.8,0.2,1.4c-0.3,2.1-0.5,4.2-0.5,4.2c0,0.1,0.1,0.2,0.2,0.2h0c0.1,0,0.2-0.1,0.2-0.1c0,0,0.5-2,1.4-2.5
		c0.7-0.3,1.1-0.5,1.2-0.5c0.1,0.1,0.2,0.3,0.3,0.4c-0.5,0.7-1.9,2.7-1.5,4.8c0.1,0.3,0.2,0.6,0.2,0.9c0.1,0.5,0.2,0.9,0.2,1.2
		c-0.6,0.2-2,0.6-2.6,1.2c-0.1,0.1-0.1,0.4,0,0.5c0.1,0.1,0.2,0.1,0.3,0.1c0.1,0,0.2,0,0.3-0.1c0.4-0.4,1.3-0.7,2-0.9
		c-0.2,0.4-0.6,0.9-1.3,1.6l-0.2,0.2c-2,1.8-2.8,2.5-2.9,3.8C64.2,78.9,63.7,79,62.2,79.2 M66.7,60.7L66.7,60.7L66.7,60.7L66.7,60.7
		z M79.8,78.8L79.8,78.8c-0.1-0.1-0.2-0.2-0.4-0.2c-1.7,0.1-3.1-0.2-4.5-0.4c-1-0.2-2-0.4-2.9-0.4c-0.9,0-1.8,0.2-2.8,0.3
		c-1.1,0.2-2.2,0.4-3.7,0.4l-0.1,0c-0.1,0-0.1,0-0.2,0c-0.2,0-0.3,0.1-0.4,0.1c0-0.1,0.1-0.2,0.1-0.4c0.1-1,0.7-1.6,2.6-3.3l0.2-0.2
		c2-1.7,1.9-2.6,1.4-4.3C69.1,70.3,69,70,69,69.6c-0.3-1.7,0.8-3.4,1.3-4.1c1.9,1.8,4.3,2.8,6.2,3.6c0.9,0.4,1.7,0.7,2.2,1
		c2.2,1.2,4.7,5.9,4.6,6.7C81.5,77.2,80.3,77.9,79.8,78.8 M64,38.8c1.3-0.5,3.8-0.4,6.9-0.2c3,0.1,6.7,0.3,10.6-0.1
		c0.2,0,0.3,0,0.4,0c0,0.1-0.2,1.8-4.4,1.9c-3.5,0.1-6,0-8-0.1c-2.4-0.1-4-0.2-5.7,0.1c0.1-0.2,0.2-0.4,0.2-0.8
		C64,39.2,64,39,64,38.8L64,38.8z M88.1,32.7c0,0-1.9,2.8-7.7,2.8h-0.3c-11.7-0.4-14.7-0.1-15.3,0c-0.3-0.6-1-1.2-1.7-1.3
		c-0.2,0-0.4,0.1-0.4,0.3s0.1,0.4,0.3,0.4c0.5,0.1,1.2,0.7,1.2,1.1c0,0.4-0.3,0.8-0.6,1.2c-0.1,0.1-0.2,0.2-0.2,0.4
		c-0.2,0.6-0.2,0.9-0.1,1.2c0,0.2,0.1,0.4,0.1,0.6c0,0.3-0.1,0.4-0.4,0.6c-0.2,0.1-0.4,0.3-0.6,0.5c-0.4,0.6-0.3,0.9-0.3,1.2
		c0,0.2,0.1,0.3,0,0.4c-0.1,0.1-0.4,0.4-0.6,0.5c-0.3,0.2-0.6,0.4-0.8,0.6c-0.1,0.1-0.3,0.2-0.5,0.4c-0.6,0.4-0.9,0.7-1,1.1
		c-0.1,0.4,0.1,0.7,0.2,1.1c0.1,0.2,0.1,0.5,0.1,0.7c-1.3-0.2-2.9-0.4-4.3-0.7c0.2-0.1,0.2-0.4-0.2-0.8c-0.1,0-2-1.2-1.7-1.3
		c0.5,0,3.5,0.5,3.5-0.2c0-0.4-0.6-0.5-0.9-0.6c-0.4-0.1-0.9,0.1-1.4-0.1c0,0-0.7-0.4-0.4-0.5c0.6,0,3.3,0.7,2.9-0.7
		c-0.9-0.2-2.6,0-3.4-0.7c0.2-0.3,1.7-0.1,2.1-0.1c0.1,0,2.8-0.1,2.4-0.4c-0.3-0.4-3.5-1.2-3.5-0.8c0-0.8,2.5-0.3,2.3-1.5
		c-0.2-0.8-1.9-0.2-2.4-0.7c0.5,0,3.7-0.4,3-1.7c-0.1-0.2-0.8-0.3-1.2-0.3c-0.8-0.2-1.7-0.2-2.6-0.3c0.5-0.3,4.3-0.4,4.2-1
		c-0.1-0.1-1.1-0.5-1.3-0.6c-0.8-0.6-1.5-1.3-2.5-1.5l-0.3-0.2c1.1-0.3,2.4-0.6,4.1-0.6c2,0,4.3,0.4,7,1.3c2.8,0.9,6.5,1.3,10.9,1.3
		c4.4,0,9-0.5,12.5-1.2C88.2,32.6,88.1,32.7,88.1,32.7 M48.6,32.4c-1.6-0.2-2.6-0.9-2.6-1.7c-0.1-0.8,0.7-1.5,1.9-1.9
		c2.8-0.9,5.4-1.3,8.1-1.3c3.9,0,7.3,0.9,10.9,1.9c2.3,0.6,4.7,1.2,7.3,1.7c1.6,0.3,3.3,0.4,5,0.4c3.7,0,7.1-0.6,9.6-1
		c1.6-0.3,2.8-0.5,3.6-0.5c0.5,0,0.8,0.1,0.8,0.3c-0.1,1-8.2,2.9-17.3,2.9c-4.3,0-8-0.4-10.7-1.3c-2.7-0.9-5.1-1.3-7.2-1.3
		c-2.6,0-4.4,0.7-5.8,1.2C50.8,32.1,49.7,32.5,48.6,32.4 M51,33.3c-0.2-0.2-0.3-0.3-0.4-0.4c0.4-0.1,0.7-0.2,1.1-0.3
		C51.4,32.8,51.2,33,51,33.3 M50,45.2L50,45.2L50,45.2L50,45.2z M49.9,46.1c0.2-0.3,1.5,1.6,1.7,1.4c0.2-0.2-0.5-1-1.2-1.8
		c0.9,0.2,6.6,1.6,10,1.9c0.8,0.1,1.9,0,2.9,0c3.7,0,8.4-0.1,11.5,2c1.9,1.3,3.9,3.8,5.9,6.1c1.1,1.4,2.3,2.8,3.4,3.9
		c1.5,1.6,3.2,2.5,4.5,2.5c0.6,0,1.1-0.2,1.6-0.6c1.5-1.3,1.2-4.9-4-11.1c-2.7-3.2-2.6-7-1.3-9.3c0.9-1.6,2.3-2.4,3.7-2.2
		c2.5,0.4,2.4,1.4,2.3,2.6c-0.1,0.6-0.1,1.3,0.4,1.7c0.3,0.2,0.6,0.6,0.8,1c-0.2-0.1-0.5-0.1-0.8-0.2c-0.6-0.2-1-1.2-1-1.2l0.1,0.4
		c0.1,0.5,0.7,1.6,0.9,1.8c0.2,0.3-0.3,0.7-0.3,0.7s-0.1-0.2-0.5-0.8c-0.5-0.5-1-2-1-2s-0.2,0.3,0,0.9c0.1,0.2,0.1,0.4,0.2,0.6
		c-0.1,0-0.2,0-0.3,0.1L89.3,45c0-0.2-0.1-0.4-0.2-0.7c-0.1-0.4-0.3-0.7-0.4-0.9c-0.3-0.6-0.4-0.7,0.1-1.4c0.5-0.8,0.3-1.4,0-1.7
		c-0.5-0.4-1.4-0.3-2,0.2c-0.5,0.5-1.4,1.9-1.4,3.9c0,1.4,0.3,3.6,2.4,5.7c5.8,6,5.7,10.5,3.8,12.5c-1.7,1.8-4.5,1.7-6.7-0.1
		c-1.4-1.2-2.8-2.9-4-4.4c-1.2-1.5-2.3-2.8-3.3-3.5c-0.5-0.5-1.4-0.7-1.9-0.9c-0.5-0.3-1-1.3-1.8-1.3s-1.4,1.2-1.4,1.8
		c0.7,0.2,1.5-0.2,2.3,0c1.1,0.2,1.5,0.3,2.1,1l0.2-0.1c0.4,0.2,0.7,0.6,1.1,1l0,0c0,0,0,0.1-0.1,0.3c-0.8,0.8-2.8,3.1-4.2,4.6
		c-1,1-0.9,1.2-0.9,1.2c0,0.1,0.1,0.1,0.2,0.1c0.2,0,0.6-0.3,0.8-0.4l2.9-1.3c-0.7,0.9-2.1,2.8-1.9,3.5c0,0.1,0.2,0.2,0.3,0.2
		c0.5,0,1.7-0.9,2.3-1.4c-0.3,0.7-0.7,1.8-0.3,2.1l0.1,0c0.4,0,1.1-0.7,1.5-1.1c0.3,0.8,0.7,1.8,0.6,2.1c0,0-0.1,0.1,0,0.2l0.1,0.1
		c0.2,0,1-0.7,1.6-1.3l0-0.1c0.8,0.6,1.7,1.2,2.5,1.8c1.3,0.9,2.6,1.8,2.8,2.3c0.1,0.4,0,0.6-0.2,1.1c-0.3,0.5-0.6,1.1-0.5,2.1
		c0,1.6,0.2,2.1,0.2,2.2c0.1,0.1,0.2,0.2,0.3,0.2l0.2,0c0.2-0.1,0.3-0.3,0.2-0.5c0,0-0.2-0.4-0.2-1.9c0-0.5,0.1-0.9,0.2-1.2
		c0.1,0.4,0.3,1.2,0.3,2.1c0,0.8,0.5,1.4,0.9,2c0.6,0.8,0.9,1.3,0.6,1.8c-0.2,0.4-0.5,0.6-0.9,0.8c-0.3,0.2-0.7,0.4-1,0.8
		c-0.4,0.6-2,2.2-3.6,2.6c-1.7,0.4-2.1-0.3-2.3-0.7l0-0.1c-0.1-0.1-0.2-0.2-0.4-0.1l1.8-0.9c0.2-0.1,0.2-0.3,0.1-0.5
		c-0.1-0.2-0.3-0.2-0.5-0.1l-1.4,0.7c0-0.2,0-0.4,0.1-0.6c0.2-0.5,1-1.2,3.1-1.6c0.3,0,0.4-0.2,0.5-0.5c0.2-1.4-2.8-6.3-4.9-7.5
		c-0.6-0.4-1.4-0.7-2.3-1.1c-1.9-0.8-4.3-1.8-6.2-3.6l-0.1-0.1l-0.1,0c-0.6-0.6-1.2-1.3-1.6-2.2c-2.6-5-6.4-5.1-6.5-5.1
		c-0.2,0-0.4,0.2-0.4,0.4c0,0.2,0.2,0.4,0.4,0.4c0.1,0,2,0.1,4,2c-0.3,0.1-2.1,0.4-4.6,1l0.6-2.1L61,59.4v1.9
		c-0.7,0.2-1.6,0.4-2.4,0.7l0.6-2l-1,0.4l-0.3,1.8c-0.7,0.2-1.3,0.4-2,0.7l0.7-2l-1.3,0.6l-0.2,1.6h0.1c-0.1,0-0.1,0.1-0.2,0.1
		c-0.6,0.2-1.2,0.4-1.8,0.5l0.7-1.7l-1.3,0.2L52.2,64c-0.5,0.1-1,0.2-1.5,0.2l0.9-1.7l-1.2-0.1l-0.7,1.8c-1,0-1.8-0.1-2.3-0.1
		l0.5-0.1l1.4-1.8l-1.2-0.3L47,64c-0.3,0-0.5-0.1-0.5-0.1c-0.1,0-0.2,0-0.3,0c-0.1-0.3-0.2-0.6-0.3-0.9l0.8-1.4l-0.8-0.4L45.4,62
		c-0.6-1.4-1.3-2.6-1.4-2.7c-0.1-0.2-0.3-0.2-0.5-0.1c-0.2,0.1-0.2,0.3-0.1,0.5c0,0,2.3,3.8,2.3,5.5c0,0.7-0.1,1.5-0.3,2.4
		c-0.2,1.4-0.4,2.9-0.2,4.1c0.1,0.4,0.2,0.8,0.4,1.2c0.4,1.4,1,3.1,0.2,3.8c-0.2,0.1-0.2,0.4-0.1,0.5c0.1,0.1,0.2,0.1,0.3,0.1
		c0.1,0,0.2,0,0.2-0.1c1.2-1,0.6-3,0-4.6c-0.1-0.4-0.3-0.8-0.3-1.1c-0.2-1,0-2.4,0.2-3.8c0-0.2,0-0.4,0.1-0.6l0,0l0.1,0.1
		c0.5,0.4,0.8,0.7,0.9,1.1c0,0.1,0,0.3,0,0.4c0,0.3-0.1,0.7,0.5,0.9c0.5,0.2,0.8,0.3,0.8,0.3l0.1,0c0.1,0,0.1-0.1,0.2-0.1
		c0-0.1,0-0.2-0.1-0.2c0,0-0.3-0.1-0.8-0.3c-0.3-0.1-0.2-0.2-0.2-0.4l0,0l0,0.1c0.1,0.1,0.2,0,0.3-0.1c0.2-0.3,0.4-0.6,0.5-0.8
		l0.1,0c0.2,0.4,0.4,0.9,0.8,1.1c0.5,0.2,0.8,0.3,0.8,0.3l0.1,0c0.1,0,0.2-0.1,0.2-0.1c0-0.1,0-0.2-0.1-0.2c0,0-0.3-0.1-0.8-0.3
		c0.1,0,0.2,0,0.3-0.1c0,0,0.1-0.1,0.3-0.4l0.1,0.1c0.1,0.1,0.3,0.1,0.4,0.1c0.7,0.3,1.1,0.8,1.2,0.8c0.1,0.1,0.2,0.1,0.2,0.1
		c0.1,0,0.2,0,0.3-0.1c0.1-0.1,0.1-0.4,0-0.5c0,0-0.4-0.4-0.9-0.7c0.1-0.2,0.1-0.5,0.1-1c0.2,0,0.4,0.1,0.6,0.1
		c0.6,0.4,1.4,0.9,1.4,1l0.1,0l0.1,0c0.1-0.1,0.1-0.1,0-0.2c-0.1-0.2-0.2-0.4-0.3-0.7h0c0.1,0,0.3,0.1,0.5,0.1
		c0.2,0.2,0.5,0.3,0.8,0.4c0.1,0,0.4,0.2,0.5,0c0.2-0.2,0-0.5-0.2-1c-0.1-0.1-0.1-0.3-0.2-0.4c0-0.1,0.1-0.2,0.3-0.3
		c0.1,0.1,0.1,0.1,0.1,0.2c0.3,0.4,0.6,0.8,0.9,0.6c0.3-0.3,0.1-0.9-0.2-1.3c0.6,0.2,1.3,0.4,1.4,0.5c0.1,0,0.2,0,0.3-0.1
		c0-0.1,0.1-0.2-0.6-1c0.1-0.1,0.1-0.2,0.2-0.4l0.1,0.1c0.5,0.1,1.1,0.3,1.1,0.3l0.1,0l0.2-0.1c0-0.1,0.1-0.2,0-0.2l-0.4-0.7
		l1.1,0.1l0.1-0.1l0.1-0.1v-0.6l0.9-0.4l0.1-0.1l0.1-0.3v0c0.1,0,0.3-0.1,0.4-0.1l0,0.1c0.1,0.3,1.8,6.1,3,8.1c-1.3,1.2-2,3-2.4,4.1
		c-0.2,0.5-0.3,0.9-0.4,1c-0.2,0.2-1.6,0.3-2.6,0.4c-1.4,0.1-2.4,0.2-3,0.5c-0.7-0.2-1.4-0.1-2.1,0c-0.5,0.1-1.1,0.2-2,0.2
		c-1.2,0.1-1.9-0.2-2.5-0.4c-0.4-0.2-0.9-0.3-1.3-0.3c-0.2,0-0.4,0.2-0.4,0.4c0,0.1,0.1,0.2,0.2,0.3c-0.3,0.1-0.6,0.3-0.9,0.6
		l-0.1,0c-0.2,0-0.3,0.2-0.3,0.4c0.1,0.5,0,0.9-0.4,1.4c-0.7,0.9-2.1,1.6-3.5,1.7c-1,0.1-1.3-0.1-1.4-0.3c-0.1-0.2-0.1-0.4-0.1-0.4
		c0.1-0.2,0-0.4-0.2-0.4c-0.2-0.1-0.4,0-0.5,0.2c0,0.1-0.2,0.2-0.3,0.2c-0.1,0-0.2-0.1-0.4-0.3c-0.2-0.3-0.3-0.5-0.2-0.7
		c0.1-0.4,0.8-0.7,1.4-0.9c0.6-0.3,1.3-0.5,1.6-1c0.9-1.1-1.7-6-2.8-8c-0.1-0.2-0.3-0.2-0.5-0.1C39,68.8,38.9,69,39,69.2
		c1.3,2.2,2.3,4.4,2.7,5.8c-0.5-0.1-1.7,0-3.6-0.1c-2,0-2.9-0.6-4.2-2c-1.1-1.2-2.4-1.8-2.9-2c0-0.4,0-0.9,0-1.3
		c0-1.1,0.2-2.3,0.1-3.4l-0.2-1.4c-0.1-0.6-0.5-0.8-1.2-1c-0.1-0.1-0.2-0.1-0.4-0.2c0,0-0.1,0-0.2-0.1c-0.1,0-0.5-0.2-1.1-0.4
		l0.1-0.1c0.2-0.4,0.2-0.5,0.8-0.5c1.7-0.1,2.2-0.8,2.3-0.9c0-0.1,0.1-0.1,0.1-0.2c0.9,1,1.7,2.1,1.8,3.5c0.1,1.4,0.8,3.8,1.5,3.9
		c0.6,0.2-0.3-2.6-0.3-2.6s0.9,2.2,1.4,2.4c0.4,0.1-0.6-2.5-0.4-2.3c0.3,0.2,0.7,0.2,0.7,1c0,0.7,0.8,2.7,1.4,3
		c0.3,0.1,0.2-0.8,0.2-1.6c-0.2-0.5-0.2-1-0.2-1s0.1,0.5,0.2,1c0.1,0.2,0.1,0.5,0.3,0.7c0.4,0.6,0.9,1.6,1.4,1.5
		c0.5,0,0-0.7-0.1-1.8c-0.1-1.1,0.6-0.8-0.1-3.3c-0.6-2.4-2.4-4.9-3.4-6.5c-0.8-1.7-0.3-4.7-0.3-4.7s0.6,1.3,1.2,1.8
		c0.5,0.5,0.4,0.9,0.6,1.2c0.2,0.3,1.9,1.1,1.5,0.7C38,57.9,38,56.8,38,55.7c0-1-1.7-2-1.7-2s0.7,0.2,2.2,0.3
		c1.4,0.1,2.8,1.7,2.2,0.7c-0.5-0.9-1.3-3.5-1.3-3.5s0.4,0.7,1.2,1.5c0.8,0.7,1.6,1.4,3,1.3c1.3-0.1-0.8-0.7-1.4-1.2
		c-0.5-0.4-0.4-2.3-0.4-2.3l0.9,1.6c0,0,0.8,0.9,1.7,0.9c0.9,0.1,0.1-0.7-0.2-1.2c-0.4-0.3-0.4-2.1-0.4-2.1s1.7,0.7,3.2,0.4
		c1.4-0.4-0.1-0.7-1.4-0.9c-1.4-0.2-1.2-2.8-1.2-2.8s0.6,0.3,0.9,0.6c0.3,0.3,0.4,0.5,0.9,1.2c0.4,0.6,0.8,0.4,2.8,0.6
		c1.8,0.1,1,0.5,1.7,0.5c0.6,0.1-0.1-0.9-0.1-0.9s0.1-0.2,0.3-0.3c0.2,0,0-0.2-0.1-0.6C50.7,47.2,49.6,46.6,49.9,46.1 M59.5,62.6
		c0.3-0.1,0.6-0.2,0.9-0.3v0L59.5,62.6h0.1H59.5z M58.2,64.3c-0.1,0-0.3-0.1-0.4-0.1c0.1,0,0.2,0,0.3-0.1L58.2,64.3z M57.1,65.3
		c-0.1,0-0.2-0.1-0.4-0.1c0.1,0,0.1-0.1,0.2-0.1C56.9,65.2,57,65.3,57.1,65.3 M55.9,66.3c-0.1-0.1-0.2-0.3-0.3-0.4
		c-0.1-0.1-0.1-0.2-0.2-0.2c0.1-0.1,0.1-0.1,0.2-0.2C55.7,65.8,55.9,66.2,55.9,66.3 M54.7,66.8c0.1,0.2,0.2,0.4,0.2,0.5l-0.1,0
		c-0.1-0.1-0.2-0.1-0.4-0.2C54.6,67,54.7,66.9,54.7,66.8L54.7,66.8z M53.1,67.4l-0.1-0.1l0.1,0L53.1,67.4z M49.2,68.6
		c-0.1-0.1-0.2-0.3-0.3-0.4h0.4l-0.1,0.1C49.1,68.3,49.1,68.4,49.2,68.6 M47.9,68.1c-0.1,0.1-0.2,0.3-0.3,0.5c0-0.1,0-0.2,0-0.3
		c0-0.1-0.1-0.2-0.1-0.2C47.7,68.1,47.8,68.1,47.9,68.1 M46.3,64.7c0.1,0,0.1,0,0.2,0l-0.1,0.1L46.3,64.7z M46.3,66.9L46.3,66.9
		l-0.1-0.1L46.3,66.9z M36,36.7c0.9,0.6,1.8,1,2.1,2c0.3,0.8-1.5-0.4-2.6-1.2c-1.1-0.6-2.6-2.9-2.6-2.9S35.2,36,36,36.7 M33.8,32.7
		c0,0,0.7-0.3,1.2,0.3c0.3,0.6,0.5,1.4,0.5,1.4L33.8,32.7z M34,51.9c-0.1-1.8,0-2.7,0-2.7l0.4-0.5c0,0,0.5,3.6,0.4,4.1
		c-0.1,0.5-1.3,2.3-1.3,2.3S34.1,53.8,34,51.9 M33.7,45.3c-1.5-1.1-2.1-3.2-2.1-3.5c0,0,2.3,2.4,3,2.7c0.5,0.2,1,0.4,1.5,1.4
		c0.1,0.2,0.1,0.3,0.2,0.5l0.1,0.2c0.5,1.3,1.3,1.5,1.3,1.5l0.3,0.9c0,0-1.3-0.2-1.8-1.5c-0.1-0.3-0.2-0.5-0.3-0.7
		c-0.1-0.2-0.3-0.4-0.5-0.6C34.9,46.1,34.4,45.8,33.7,45.3 M32.8,51.2c-0.5-0.8-1.7-2.1-1.7-2.1s0.7-0.3,0.7-0.5
		C31.8,48.6,32.4,50.3,32.8,51.2c0.1,0.2,0.2,0.3,0.2,0.4C33,51.9,32.9,51.6,32.8,51.2 M34.7,39.9c-1.5-0.5-2.4-1.5-2.4-1.5
		s2.6,0.5,3.5,1.5c0.7,1,1.2,2.5,1.2,2.5S36.1,40.5,34.7,39.9 M36.6,43.9c0,0-0.4-0.1-1.3-0.7c-0.7-0.5-0.9-0.9-1.4-1.3
		s-1.3-1-1.3-1c0.2,0.1,1.5,0.2,1.9,0.7c0.5,0.5,0.7,1.1,1.4,1.6C36.6,43.7,36.6,43.9,36.6,43.9 M38.2,50.4c0,0-0.2,1.2,0,1.9
		c0.2,0.4,0.3,0.6,0.2,0.4c-0.1-0.1-0.1-0.2-0.2-0.4c-0.4-0.7-1.2-2-1.2-2L38.2,50.4z M37.8,46.8c-0.2-0.3-0.3-0.7-0.4-1
		c-0.1-0.4-0.1-0.7,0-0.9c0-0.1,0-0.2,0-0.2l0,0.1c0.1,0.1,0.2,0.3,0.4,0.6c0.1,0.1,0.2,0.3,0.3,0.4c0.4,0.6,0.8,1.3,1.4,1.6
		C39.9,47.8,38.5,47.6,37.8,46.8 M38,41.4c-0.7-0.7-0.8-1.6-0.8-1.6c0,0.1,1.6,0.6,2.3,2.2l0,0c0.2,0.3,0.3,0.5,0.4,0.7
		c0.5,0.9,0.6,0.9,0.6,0.9s-0.3-0.2-0.9-0.6c-0.2-0.1-0.4-0.2-0.6-0.4l-0.1-0.1C38.1,42.1,38.6,42.1,38,41.4 M37.3,36
		c0,0,1.2,0.1,1.5,0.7C39.1,37.3,37.3,36,37.3,36 M31,30.6c0,0,1.2,0,1.5,0.6c0.4,0.6,0.6,0.8,0.6,0.8L31,30.6z M31.3,47.8
		c0,0.1,0,0.2,0,0.3c-0.2,0.6-0.7,0-0.9-0.2c-0.1-0.1-0.1-0.1-0.1-0.1c0-0.7-0.1-2.4-0.1-2.4S31.1,46.9,31.3,47.8 M30.5,50.2
		c0.3,0.2,0.7,2.3,0.3,3.5l-0.5,1.3c0,0,0.2-2.5-0.1-3.5c-0.4-0.9-0.6-2.2-0.6-2.2C29.6,49.4,30.3,49.9,30.5,50.2 M29.6,58.5
		L29.6,58.5L29.6,58.5L29.6,58.5L29.6,58.5z M30.4,61.2c-0.2,0.2-0.7,0.4-1.5,0.4c-0.9,0-1.2,0.5-1.4,0.9c0,0.1-0.1,0.1-0.1,0.2
		c-0.2,0.3-0.5,0.7-1.3,0.9c-0.1,0-0.2,0.1-0.3,0.1c-0.3,0.1-0.5,0.1-0.8,0.1c-0.6,0-0.9-0.2-1.1-0.4c-0.3-0.3-0.3-0.7-0.3-0.7
		c0-0.1,0-0.2-0.1-0.3c-0.1-0.1-0.1-0.1-0.2-0.1h0c-0.1,0-0.2,0.1-0.3,0.2l-0.1,0.1c0,0-0.2,0.6-0.6,0.6c-0.1,0-0.3,0-0.4-0.1
		c-0.3-0.1-0.4-0.3-0.5-0.5l0-0.1c0-0.4,0.5-1.1,2.1-1.9c1.9-1,4.9-1.4,5.8-1.5L30.4,61.2z M39.6,48.7c0,0,0.9-0.6,1.5,0.4
		c0.6,1.1-0.2,2.3-0.2,2.3v-1C40.8,49.4,39.6,48.7,39.6,48.7 M44,48.5c0,0-1.5,0.1-2.2-0.9c-0.7-0.9,0.3-1.5,0.3-1.5s0,1.5,0.9,1.9
		L44,48.5z M43.9,45.2c0,0,0.6-0.1,1.5,0.7c0.8,0.8,1,1.5,1,1.5L43.9,45.2z M48.6,46.6c0.5,0.6,1.5,1.3,1.5,1.3s-0.6,0.1-1.5-0.4
		c-0.6-0.5-1.2-1.5-1.4-1.8C47.3,45.8,48.1,46,48.6,46.6 M43.4,42.3c0.4,0.1,1.6,0.7,2.6,1.3l0,0c0.7,0.4,1.2,0.8,1.3,1
		c-0.5,0.2-2.1,0.2-2.7-0.1c-0.5-0.3-0.9-1.4-1.7-1.7L43.4,42.3z M41.5,39.8c0,0,0.9,1.4,1.4,1.9c0.3,0.4-1.8-1.4-1.8-1.4L41.5,39.8
		z M42.4,45.5c-0.3,0.2-1.8,0-2.5-0.4c-0.4-0.3-0.7-0.6-0.9-1c-0.2-0.3-0.3-0.6-0.3-0.6c0,0.1,0.3,0.2,0.6,0.2
		c0.6,0.2,1.4,0.4,1.6,0.6C41.2,44.6,42.9,45.4,42.4,45.5 M18.2,37.4c0-5.9,5-10.7,11.1-10.7c6.2,0,11.3,4.8,11.3,10.7
		c0,0.2,0,0.3,0,0.5c-0.3-0.3-0.5-0.5-0.8-0.8c-0.8-0.9-0.4-1.1-1.2-1.5c-0.7-0.4-0.5-0.1-1.7-0.6c-1-0.4-0.4-0.7-0.6-1.5
		c-0.2-0.7-0.5-0.6-0.9-1.2c-0.4-0.5-0.3-0.3-0.8-0.6c-0.6-0.4-0.5-0.2-0.9-0.5c-0.4-0.2-0.3-0.3-0.7-0.7c-0.4-0.4-1.1-0.4-1.9-0.2
		c-0.8,0.2-0.2,0.1-1.2-0.3c-0.9-0.3-0.9,0-1.6,0c-0.5,0-0.7,0.1-1.6,0.1c-0.9,0-0.4,0-1.1,0.3c-0.6,0.2-0.8,0.4-1.3,0.7
		c-0.4,0.3-0.9,0.2-1,0.3C23,31.5,22.6,32,22.6,32s-0.9-0.4-1.3,0c-0.2,0.4-0.1,1.4-0.1,2.2c-0.1,0.8,0,0.7,0,1.3
		c-0.1,0.6-0.1,0.5-0.5,1.3c-0.4,0.8,0.4,1.5,0.3,1.9c-0.1,0.5,0.1,1,0.1,1.3c-0.1,0.3,0,0.8,0.2,1.4c0.1,0.6,0,0.3,0,1
		c0.1,0.7,0.4,0.3,1.2,0.9c0.6,0.5,0,0.4,0.3,1c0.4,0.5,0.3,0.4,0.7,0.9c0.4,0.6,0.2,0.5,0.4,1.1c0.2,0.5,0.9,0.8,1.3,0.9
		c0,0,0.8,0,1.9,0.6C22,46.8,18.2,42.5,18.2,37.4 M23.2,33.8l-0.5,0.1c0,0-0.1-0.5-0.4-0.5c-0.3,0-0.5-0.1-0.5-0.1s-0.1-1.2,0.3-0.9
		C22.5,32.5,23.2,33.8,23.2,33.8 M27.3,45.6c-0.6,0.5-0.7,1.6-2.1,0.3c-1.4-1.2-0.8-1.5-1.2-1.8c-0.2-0.2-0.8-1-0.8-1.6
		c0-0.4-0.2-1.3-0.2-1.8c0-0.5-0.6-0.8-0.5-1.3c0.1-0.3,0.4-0.7,0.5-1l0.3,0.3c0.4,0.2,0.4,0.3,0.4,0.3s-0.3,0.7,0,0.8
		c0.2,0.2,0.3-0.1,0.5-0.4c0.3-0.3,0-0.5,0.3-0.7c0.2-0.3,0-0.8,0-1.3l-1.7-0.4v0.1C22.8,37,22.8,37,22.8,37s0.6-0.1,0.2-0.8
		c-0.4-0.6-0.3-0.6-0.2-0.8c0-0.3-0.2-0.3,0.1-0.6c0.5-0.3,0.4-0.9,0.8-1.3c0.5-0.4,1-0.1,0.9,0.6c0.2-0.4,0.3-1.1,0.7-1.4
		c0.2,0.6,0,1.5,0.2,2.1c0.4-0.9,0.8-2.2,1.7-3c0,0.6-0.2,1.2-0.3,1.7c0.1-0.3,0.3-0.5,0.5-0.7c0,0.4,0,1,0.1,1.4
		c0.6-0.3,1-1.2,1.9-1.3c0.4,0.8-0.1,1.6-0.8,2.2c0.4-0.3,1.4,0.3,1.5,0.6C30.3,36,30,36.5,30,37c-0.1,0.8,0.1,2.3,0.4,3.1
		c0.2,0.4-1.5-0.8-1.6-0.4c0,0.4,0.5,1.2,0.6,1.6c0,0.4,0.4,0.9,0.2,1.2c-0.2,0.2-0.8-1.4-1-0.7c-0.1,0.7,0.7,1.5,0.7,1.5
		s-0.5,0-0.3,0.6c0.3,0.6,0.5,1.2,0.5,1.2s-0.9-1.3-1.2-0.9c-0.2,0.4,0,0.8-0.2,1C27.9,45.3,28,45.1,27.3,45.6 M8.8,40.8
		c-0.3-2.1,0.5-3.4,1.3-3.9c0.7-0.4,1.4-0.5,2.1-0.1c1.1,0.6,1.7,2.4,1.6,4.7C13,53,19.8,60.9,19.9,61c0.1,0.2,0.4,0.2,0.5,0
		c0.1-0.1,0.2-0.4,0-0.5c-0.1-0.1-4.7-5.5-5.8-13.8c0.3,0.8,0.6,1.5,0.6,1.7c0.2,0.5,0.2,1.7,0.6,2.1c1.2,1.2,0.6-1,0.8-1.6
		c0.8-2.1,1.2,1.9,1.5,2.5c1-2.7,1.9,0,1.8,1.6c0-0.4,0.6-2.3,1-2.3c0.3-0.1,0.5,2,0.5,2.1c0.6-0.6,0.4-1.9,1.1-2.6
		c0.5,0.7,0.4,2.1,0.9,3c0.7-0.4,0.3-2.9,0.3-3.6c0.5,0.7,0.7,1.8,1,2.7c0.1,0.3,0.1,1.1,0.5,1.1c0.6,0.1,0.4-0.7,0.4-1.1
		c-0.1-0.7-0.5-3.3,0.7-1.7c0.6,0.7,0.7,1.7,1,2.6c0,0.2-0.1,0.5-0.1,0.8c-0.2,1.9,0.5,1.8,0.7,3.2c0.2,0.7,0.5,1.1,0.8,1.2
		c-0.2,0-0.5,0.1-0.9,0.1c-1-1.1-1.7-2.7-1.8-2.9v0.2c0-0.3-0.2-0.4-0.4-0.4c-0.3,0-0.4,0.1-0.4,0.4c0,0.2,0,0.3,2.2,2.7
		c-0.5,0.1-1.2,0.2-1.9,0.4l0,0c-0.9-0.7-2-3.4-2-3.4c-0.2-0.2-1.3-0.1-1.2,0.1c-0.7-0.7,1.2,2.1,2.7,3.4c-0.8,0.2-1.7,0.5-2.5,0.9
		c-1.6,0.8-2.5,1.8-2.5,2.6l0,0.2l0,0h-0.1c0,0-0.1,0-0.2,0.1v0C20,62.7,10.3,51.9,8.8,40.8 M14.2,63.8c0.4,0,0.9-0.1,1.4-0.2
		c2.1-0.3,2.9,0.1,3,0.3c0,0.1,0,0.1,0.1,0.2C18.6,66.6,19,74.5,19,74.5l0.3-10.3l-0.2,0.1c-0.4,0,0.4-0.4,1.9-0.6
		c0.1,0.1,0.2,0.2,0.3,0.2c0.7,0.3,1.3,0.2,1.7-0.2c0.3,0.5,0.9,0.9,1.9,0.9c0.3,0,0.6,0,0.9-0.1c0.6-0.1,1-0.3,1.3-0.5
		c0.5,0.1,0.9,0.3,1.4,0.5c0,0.4,0.1,10.7,0.1,13.8c-0.9-0.2-3-0.5-4.4-0.6h-0.3c-1.7-0.1-3.8,0.5-4.9,1.1v-2.2c0-0.1,0-1.4-0.1-1.4
		s-0.3,1.3-0.3,1.4v2.3c-0.4-0.3-2.6-0.7-4.4-0.7c-0.3-0.1-0.5-0.1-0.8-0.1c-1.8,0-1.9,0.5-3,1.2c-0.2,0.1-0.4,0.2-0.4,0
		c0-1.4,0.2-4.3,0.5-7.9v-1.7c0-2-0.2-4.4-0.2-5.5C11,64,12.4,64,14.2,63.8"/>
	<path class="st0" d="M55.6,13.2c0.8,0.3,2,0.3,3.2,0.3c1.5,0,2.9-0.1,3-0.1c0.3,0,0.6-0.4,0.5-0.7c0-0.3-0.4-0.5-0.7-0.5
		c0,0-1.4,0.2-2.9,0.2c-0.9,0-2-0.1-2.6-0.3c-0.4-0.1-0.7,0-0.8,0.3C55.1,12.8,55.3,13.1,55.6,13.2"/>
	<path class="st0" d="M36.6,8.8c0.8,0.3,2,0.3,3.1,0.3C41.3,9,42.5,9,42.6,9c0.4-0.1,0.7-0.4,0.6-0.8c0-0.3-0.4-0.5-0.7-0.4
		c0,0-1.5,0.1-3,0.1c-0.9,0-1.9-0.1-2.6-0.3c-0.3-0.1-0.6,0.1-0.7,0.4C36.1,8.2,36.2,8.7,36.6,8.8"/>
	<path class="st0" d="M5.8,9.9c1.6,0,1.6,0.2,3.1,0.2c1.6,0,1.6-0.1,3.3-0.1c1.4,0,1.4-0.1,2.9-0.1s1.5,0.1,3,0.1h2.9
		c0.3,0,0.8-0.3,0.8-0.6c0-0.3-0.5-0.5-0.8-0.5c-1.6,0-1.6-0.1-3.1-0.1c-1.6,0-1.6-0.1-3.2-0.1h-3h-3c-1.4-0.1-1.4,0-2.9,0
		c-0.3,0-0.5,0.4-0.5,0.7C5.3,9.7,5.5,9.9,5.8,9.9"/>
	<path class="st0" d="M16.6,13.3c-1.5-0.1-1.5-0.3-2.9-0.3c-0.3,0-0.5,0.4-0.5,0.8c0,0.3,0.2,0.6,0.5,0.6c1.6,0,1.6-0.1,3.2-0.1
		c1.6,0,1.6,0.2,3.2,0.2h3.2c1.5,0,1.5-0.2,3.1-0.2c1.6,0,1.6,0.2,3.1,0.2h2.9c0.4,0,0.7-0.4,0.7-0.7c0-0.4-0.3-0.8-0.7-0.8
		c-1.6,0-1.6,0.1-3.1,0.1c-1.7,0-1.7,0.1-3.3,0.1c-1.6,0-1.6,0.1-3.1,0.1h-3.2L16.6,13.3L16.6,13.3z"/>
	<path class="st0" d="M27.1,17.4c-0.3,0-0.7,0.2-0.7,0.6c0,0.3,0.4,0.5,0.7,0.5c1.6,0,1.6-0.1,3.2-0.1h3.2h3.2h3.1
		c1.6,0,1.6,0.2,3.2,0.2c1.4,0,1.4-0.2,2.8-0.2c0.3,0,0.5-0.1,0.5-0.4c0-0.4-0.2-0.6-0.5-0.6c-1.6,0-1.6-0.2-3.2-0.2
		s-1.6,0.1-3.2,0.1c-1.6,0-1.6,0.1-3.2,0.1h-3.1c-1.6,0-1.6-0.2-3.2-0.2C28.6,17.3,28.6,17.4,27.1,17.4"/>
	<path class="st0" d="M64.6,19c2.2,0,2.2-0.1,4.4-0.1c0.3,0,0.6-0.2,0.6-0.5c0-0.4-0.3-0.6-0.6-0.6c-2.2,0-2.2-0.1-4.4-0.1
		c-0.4,0-0.6,0.3-0.6,0.7C64,18.7,64.2,19,64.6,19"/>
	<path class="st0" d="M12,17.9c-0.4,0-0.6,0.3-0.6,0.6c0,0.3,0.2,0.7,0.6,0.7c2.2,0,2.2-0.1,4.3-0.1c0.4,0,0.7-0.3,0.7-0.6
		c0-0.3-0.3-0.6-0.7-0.6H12z"/>
	<path class="st0" d="M66.2,14c1.6,0,1.6-0.1,3.3-0.1c1.6,0,1.6,0.1,3.3,0.1c1.6,0,1.6-0.1,3.1-0.1c1.7,0,1.7-0.1,3.4-0.1
		c1.6,0,1.6,0.4,3.3,0.4h3.1c1.5,0,1.5-0.4,2.9-0.4c0.3,0,0.7-0.1,0.7-0.4c0-0.4-0.4-0.7-0.7-0.7c-1.6,0-1.6,0.2-3.2,0.2h-3.3
		c-1.6,0-1.6-0.1-3.2-0.1h-3.3c-1.7,0-1.7,0.1-3.3,0.1H69c-1.5-0.1-1.4-0.3-2.9-0.3c-0.3,0-0.7,0.4-0.7,0.8
		C65.5,13.7,65.9,14,66.2,14"/>
	<path class="st0" d="M84,20.7c-1.8,0-1.8-0.1-3.6-0.1s-1.8,0.2-3.6,0.2c-1.8,0-1.8,0.1-3.6,0.1c-1.7,0-1.7-0.2-3.4-0.2
		c-0.4,0-0.8,0.4-0.8,0.7c0,0.4,0.4,0.5,0.8,0.5c1.8,0,1.8,0.2,3.6,0.2c1.9,0,1.9-0.2,3.7-0.2c1.8,0,1.8,0.3,3.6,0.3
		c1.8,0,1.8-0.2,3.7-0.2c1.8,0,1.8,0.1,3.6,0.1c1.7,0,1.7,0.1,3.4,0.1c0.3,0,0.5-0.4,0.5-0.8c0-0.3-0.2-0.8-0.5-0.8
		c-1.9,0-1.9,0.4-3.7,0.4C85.8,21,85.8,20.7,84,20.7"/>
	<path class="st0" d="M0,84.1C0,92,4.4,96,13.1,96c23.6,0,31.9,0.2,36.5,4.2l0.5,0.4l0.5-0.5C54.9,96.1,64.3,96,87,96
		c0,0,0.5,0.1,1.2,0.1c1.5,0,4.5-0.2,7-1.9c3.1-2,4.7-5.4,4.7-10v-84L0,0V84.1z M98.5,1.5v82.6c0,2-0.3,3.7-1,5.2
		c-1.2-0.4-1.3-0.7-2.8-0.8c-1.3-0.1-1.4,0.1-2.7,0.4c-0.2,0-0.3,0.2-0.3,0.5c0.1,0.2,0.2,0.4,0.5,0.3c1.5-0.3,1.4-0.5,2.8-0.4
		c1.2,0.1,1.2,0.4,2.1,0.7c-0.7,1.2-1.6,2.1-2.7,2.9c-2.2,1.4-4.9,1.6-6.2,1.6c-0.6,0-1,0-1.1,0c-22.4,0-32.1,0.2-37.1,4.2
		c-5-4-13.8-4.2-37-4.2c-4.3,0-7.3-1-9.2-3C4.9,91.3,5,91.3,6,91.1c1.2-0.1,1-0.2,2.1-0.2h2c1.1,0,1.1,0.1,2.1,0.1
		c0.2,0,0.5-0.2,0.5-0.4c0-0.2-0.3-0.5-0.5-0.5c-1.2,0-1.2,0.1-2.2,0H7.8c-1.1,0-1.1,0-2.1,0.2c-0.9,0.2-0.9,0.3-2,0.4
		c-0.1,0.1-0.2,0.1-0.3,0.2c-1.3-1.7-1.9-3.9-1.9-6.8v-6.9c0.1,0.1,0.2,0.1,0.4,0c1.4-0.4,1.3-0.5,2.7-0.6c1.4,0,1.3,0.2,2.5,0.4
		c0.3,0.1,0.4,0,0.5-0.3c0-0.2-0.1-0.4-0.3-0.5c-1.5-0.2-1.6-0.4-3.1-0.4C3,75.8,2.9,76,1.6,76.3c0,0-0.1,0.1-0.1,0.1v-75L98.5,1.5z
		"/>
</g>
</svg>
