<?xml version="1.0" encoding="utf-8"?>
<!-- Generator: Adobe Illustrator 28.0.0, SVG Export Plug-In . SVG Version: 6.00 Build 0)  -->
<svg version="1.1" id="Livello_1" xmlns="http://www.w3.org/2000/svg" xmlns:xlink="http://www.w3.org/1999/xlink" x="0px" y="0px"
	 viewBox="0 0 500 500" style="enable-background:new 0 0 500 500;" xml:space="preserve">
<style type="text/css">
	.st0{fill:#D7DEE3;}
	.st1{fill:#54575C;}
</style>
<rect y="0" class="st0" width="500" height="500"/>
<path class="st1" d="M250,68.62c45.73,0,82.93,37.21,82.93,82.95c0,45.73-37.2,82.94-82.93,82.94s-82.94-37.21-82.95-82.94
	C167.06,105.83,204.27,68.62,250,68.62 M250,62.5c-49.11,0-89.07,39.95-89.07,89.07c0.01,49.11,39.96,89.07,89.07,89.07
	c49.12,0,89.06-39.96,89.06-89.07C339.06,102.45,299.12,62.5,250,62.5L250,62.5z"/>
<path class="st1" d="M344.13,274.92c32,0,58.04,26.03,58.04,58.03v98.42H97.83v-98.42c0-32,26.03-58.03,58.03-58.03h29.2l60.61,60.6
	l4.33,4.33l4.33-4.33l60.6-60.6H344.13 M344.13,268.8H312.4L250,331.2l-62.41-62.4h-31.74c-35.42,0-64.15,28.72-64.15,64.15V437.5
	h316.58V332.95C408.29,297.51,379.56,268.8,344.13,268.8L344.13,268.8z"/>
<path class="st1" d="M366.67,371.43c0,1.64-1.5,2.98-3.33,2.98h-18.09v18.09c0,1.85-1.34,3.34-2.98,3.34h-17.86
	c-1.66,0-2.98-1.48-2.98-3.34v-18.1h-18.09c-1.85,0-3.34-1.34-3.34-2.98v-17.86c0-1.64,1.48-2.98,3.34-2.98h18.09V332.5
	c0-1.83,1.32-3.33,2.98-3.33h17.86c1.64,0,2.98,1.5,2.98,3.33v18.09h18.09c1.83,0,3.33,1.34,3.33,2.98V371.43z"/>
</svg>
