<?xml version="1.0" encoding="utf-8"?>
<!-- Generator: Adobe Illustrator 28.0.0, SVG Export Plug-In . SVG Version: 6.00 Build 0)  -->
<svg version="1.1" id="Livello_1" xmlns="http://www.w3.org/2000/svg" xmlns:xlink="http://www.w3.org/1999/xlink" x="0px" y="0px"
	 viewBox="0 0 500 500" style="enable-background:new 0 0 500 500;" xml:space="preserve">
<style type="text/css">
	.st0{fill:#D7DEE3;}
	.st1{fill:#54575C;}
</style>
<rect y="0" class="st0" width="500" height="500"/>
<path class="st1" d="M289.84,79.57c16.32,0,29.59,13.28,29.59,29.61c0,8.39-2.68,15.88-7.53,21.09c-5.2,5.57-12.83,8.52-22.06,8.52
	c-16.33,0-29.62-13.28-29.62-29.61S273.51,79.57,289.84,79.57 M289.84,73.45c-19.74,0-35.75,15.99-35.75,35.73
	s16.01,35.73,35.75,35.73c23.14,0,35.72-15.99,35.72-35.73C325.56,89.43,309.56,73.45,289.84,73.45L289.84,73.45z"/>
<path class="st1" d="M318.25,440.56c-12.45,0-22.58-10.12-22.58-22.55v-86.34c0-12.44,10.13-22.56,22.58-22.56
	c12.44,0,22.56,10.12,22.56,22.56v86.34C340.81,430.45,330.69,440.56,318.25,440.56z M318.25,315.23c-9.07,0-16.46,7.37-16.46,16.44
	v86.34c0,9.06,7.38,16.43,16.46,16.43c9.06,0,16.44-7.37,16.44-16.43v-86.34C334.69,322.61,327.31,315.23,318.25,315.23z"/>
<path class="st1" d="M406.92,395.35h-52.29v-62.67h15.28v-42.14c0-7.92,6.44-14.36,14.36-14.36h22.65c7.92,0,14.37,6.44,14.37,14.36
	v90.42C421.29,388.9,414.84,395.35,406.92,395.35z M360.75,389.23h46.17c4.55,0,8.25-3.71,8.25-8.27v-90.42
	c0-4.54-3.7-8.24-8.25-8.24h-22.65c-4.54,0-8.24,3.7-8.24,8.24v48.26h-15.28V389.23z"/>
<path class="st1" d="M281.87,395.35H173.28c-7.92,0-14.37-6.46-14.37-14.39v-90.42c0-7.92,6.45-14.36,14.37-14.36h22.64
	c7.92,0,14.37,6.44,14.37,14.36v42.14h71.59L281.87,395.35z M173.28,282.3c-4.55,0-8.25,3.7-8.25,8.24v90.42
	c0,4.56,3.7,8.27,8.25,8.27h102.47l0.01-50.42h-71.59v-48.26c0-4.54-3.7-8.24-8.25-8.24L173.28,282.3L173.28,282.3z"/>
<path class="st1" d="M332.68,310.08c-1.21,0-2.42-0.1-3.65-0.3l-85.21-14.04c-12.28-2.02-20.62-13.66-18.59-25.95l0,0
	c2.03-12.27,13.67-20.6,25.94-18.58l85.19,14.05c5.93,0.96,11.13,4.18,14.65,9.06c3.53,4.9,4.93,10.89,3.95,16.86
	C353.15,302.21,343.54,310.08,332.68,310.08z M231.27,270.79L231.27,270.79c-1.48,8.95,4.6,17.44,13.55,18.91l85.2,14.04
	c8.95,1.46,17.43-4.62,18.89-13.55c0.72-4.35-0.3-8.72-2.88-12.29c-2.56-3.55-6.34-5.89-10.66-6.59l-85.2-14.05
	C241.23,255.78,232.75,261.85,231.27,270.79z"/>
<path class="st1" d="M132.18,163.35c-27.8,0-50.41-22.61-50.41-50.42s22.61-50.43,50.41-50.43s50.43,22.62,50.43,50.43
	S159.97,163.35,132.18,163.35L132.18,163.35z M132.18,150.87c20.91,0,37.96-17.02,37.96-37.95c0-20.91-17.04-37.95-37.96-37.95
	c-20.93,0-37.93,17.04-37.93,37.95C94.24,133.86,111.25,150.87,132.18,150.87L132.18,150.87z"/>
<path class="st1" d="M130.86,83.61c-2.08,0-3.79,1.7-3.79,3.8l0.05,29.3c0.15,1.05,0.75,2.01,1.7,2.61
	c0.63,0.42,1.35,0.61,2.05,0.61c0.54,0,1.08-0.12,1.57-0.34l24.89-11.76c1.89-0.89,2.7-3.15,1.81-5.05
	c-0.64-1.37-2.01-2.17-3.43-2.17c-0.54,0-1.1,0.12-1.62,0.37l-19.44,9.15V87.4C134.65,85.3,132.95,83.61,130.86,83.61L130.86,83.61z
	"/>
<path class="st1" d="M367.15,258.6c-3.71,0-7.66-1.23-10.57-3.28l-48.13-33.78c-7.36-5.19-9.12-15.39-3.93-22.74
	c5.18-7.35,15.38-9.11,22.74-3.93l0.08,0.06l27.7,20.97c1.35,1.02,1.61,2.94,0.59,4.29c-1.02,1.35-2.94,1.61-4.29,0.59l-27.66-20.94
	c-4.59-3.2-10.94-2.09-14.16,2.48c-3.24,4.59-2.14,10.96,2.45,14.2l48.13,33.79c1.89,1.34,4.58,2.16,7.04,2.16
	c2.09,0,4.71-0.9,6.67-2.3c3.97-2.82,5.6-7.83,4.17-12.8l-17.13-50.61c-4.55-12.51-15.9-27.19-32.84-27.19h-76.4
	c-16.94,0-28.3,14.68-32.87,27.25l-17.16,50.54c-1.43,4.95,0.21,9.97,4.18,12.8c1.93,1.38,4.61,2.3,6.66,2.3
	c2.46,0,5.16-0.83,7.04-2.16l48.2-33.8c2.22-1.56,3.7-3.91,4.16-6.59s-0.15-5.38-1.71-7.61c-3.24-4.57-9.58-5.67-14.17-2.48
	l-27.72,20.94c-1.35,1.02-3.27,0.75-4.29-0.6c-1.02-1.35-0.75-3.27,0.6-4.29l27.84-21.03c7.34-5.17,17.54-3.41,22.73,3.92
	c2.52,3.56,3.49,7.89,2.75,12.19c-0.74,4.29-3.11,8.04-6.67,10.56l-48.2,33.8c-2.89,2.05-6.85,3.27-10.57,3.27
	c-3.33,0-7.25-1.32-10.22-3.44c-6.05-4.3-8.66-12.17-6.49-19.56l0.04-0.12l17.2-50.67c5.27-14.49,18.54-31.35,38.65-31.35h76.4
	c20.1,0,33.37,16.85,38.62,31.29l17.21,50.86c2.17,7.41-0.44,15.27-6.49,19.57C374.39,257.29,370.47,258.6,367.15,258.6z"/>
<polygon class="st1" points="339.22,205.43 333.1,205.43 333.1,181.83 289.84,188.88 246.58,181.83 246.58,205.43 240.46,205.43 
	240.46,174.63 289.84,182.68 339.22,174.63 "/>
<polygon class="st1" points="289.84,239.54 252.61,233.48 253.59,227.44 289.84,233.34 326.05,227.44 327.03,233.48 "/>
</svg>
