<?xml version="1.0" encoding="utf-8"?>
<!-- Generator: Adobe Illustrator 28.0.0, SVG Export Plug-In . SVG Version: 6.00 Build 0)  -->
<svg version="1.1" id="Livello_1" xmlns="http://www.w3.org/2000/svg" xmlns:xlink="http://www.w3.org/1999/xlink" x="0px" y="0px"
	 viewBox="0 0 500 500" style="enable-background:new 0 0 500 500;" xml:space="preserve">
<style type="text/css">
	.st0{fill:#D7DEE3;}
	.st1{fill:#54575C;}
</style>
<rect y="0" class="st0" width="500" height="500"/>
<path class="st1" d="M171.69,391.17H59.44V259.02h112.25V391.17z M65.56,385.05h100v-119.9h-100V385.05z"/>
<path class="st1" d="M126.29,294.08c3.94,0,7.14,3.2,7.14,7.14s-3.2,7.14-7.14,7.14s-7.14-3.2-7.14-7.14
	S122.36,294.08,126.29,294.08 M126.29,287.96c-7.33,0-13.27,5.94-13.27,13.27s5.94,13.27,13.27,13.27s13.27-5.94,13.27-13.27
	C139.56,293.9,133.62,287.96,126.29,287.96L126.29,287.96z"/>
<path class="st1" d="M296.57,397.09c-2.59,0-5.18-0.34-7.69-1.02l-123.31-33.44v-97.75l37.45-11.82c6.18-1.95,12.94-1.8,19.03,0.41
	l83.65,30.45c11.21,4.08,17.01,16.52,12.93,27.73c-1.98,5.43-5.95,9.77-11.19,12.21s-11.12,2.7-16.54,0.72l-27.09-9.86
	c-5.28-1.92-11.15,0.81-13.08,6.1c-1.92,5.28,0.81,11.14,6.09,13.07l32.97,12.05c6.54,2.39,13.76,1.77,19.79-1.72l99.01-57.17
	c4.78-2.76,10.34-3.49,15.67-2.06c5.33,1.43,9.78,4.85,12.54,9.62l0.98,1.7c2.76,4.78,3.49,10.34,2.06,15.67s-4.85,9.78-9.62,12.54
	l-118.82,68.6C306.9,395.75,301.74,397.09,296.57,397.09z M171.69,357.95l118.79,32.21c5.99,1.63,12.5,0.78,17.88-2.33l118.82-68.6
	c3.36-1.94,5.77-5.07,6.77-8.82s0.49-7.66-1.45-11.02l-0.98-1.7c-4-6.94-12.91-9.33-19.85-5.32l-99.01,57.17
	c-7.61,4.39-16.71,5.18-24.96,2.17l-32.97-12.05c-8.44-3.09-12.81-12.47-9.74-20.92c3.08-8.46,12.47-12.84,20.93-9.76l27.09,9.86
	c3.89,1.42,8.1,1.23,11.86-0.52c3.75-1.75,6.6-4.86,8.02-8.75c2.92-8.04-1.23-16.96-9.27-19.88l-83.65-30.45
	c-4.83-1.76-10.19-1.87-15.09-0.33l-33.17,10.47v88.57H171.69z"/>
<path class="st1" d="M258.04,194.77h10.18c2.39-24.18,11.77-36.75,37.7-36.75c10.82,0,22.28,1.91,28.96,3.34l-0.48,9.86
	c-6.84-1.27-19.09-2.71-27.2-2.71c-18.3,0-24.83,8.43-26.74,26.25h45.51v9.71h-46.14c-0.16,2.55-0.16,5.25-0.16,7.96v7.16h46.31
	v9.71h-45.67c1.91,17.82,8.27,26.41,27.05,26.41c8.59,0,19.89-1.43,27.05-2.86l0.48,10.02c-7.48,1.59-18.93,3.34-28.96,3.34
	c-25.93,0-35.32-13.04-37.86-36.91h-10.03v-9.71h9.55c-0.16-2.23-0.16-4.62-0.16-7.16c0-2.71,0-5.41,0.16-7.96h-9.55V194.77z"/>
<path class="st1" d="M311.28,320.86l-0.57-6.1c39.48-3.7,73.75-30.16,87.3-67.4c9.42-25.87,8.19-53.86-3.44-78.81
	s-32.29-43.88-58.16-53.29s-53.86-8.19-78.81,3.44s-43.88,32.29-53.29,58.16c-9.26,25.44-8.22,53.04,2.93,77.7l-5.58,2.52
	c-11.81-26.13-12.92-55.36-3.11-82.32c9.98-27.41,30.03-49.29,56.46-61.61c26.43-12.33,56.08-13.62,83.49-3.65
	c27.41,9.98,49.29,30.03,61.61,56.46s13.62,56.08,3.65,83.49C389.4,288.91,353.1,316.94,311.28,320.86z"/>
</svg>
