<?xml version="1.0" encoding="utf-8"?>
<!-- Generator: Adobe Illustrator 28.0.0, SVG Export Plug-In . SVG Version: 6.00 Build 0)  -->
<svg version="1.1" id="Livello_1" xmlns="http://www.w3.org/2000/svg" xmlns:xlink="http://www.w3.org/1999/xlink" x="0px" y="0px"
	 viewBox="0 0 100 118.45" style="enable-background:new 0 0 100 118.45;" xml:space="preserve">
<style type="text/css">
	.st0{fill:#54575C;}
</style>
<g>
	<path class="st0" d="M79.73,65.16H69.71c0,0,0,0,0,0l0,0h0L50,84.87L31.66,66.53l-1.37-1.37c0,0,0,0,0,0H20.27
		C9.08,65.16,0,74.24,0,85.43v33.02h100V85.43C100,74.24,90.93,65.16,79.73,65.16z M96.66,115.11H3.34V85.43
		c0-9.33,7.59-16.92,16.92-16.92h7.44c-1.57,2.63-2.43,5.63-2.43,8.77v1.54c-3.22,0.57-6.22,2.56-8.1,5.4c0,0,0.68,0.48,0.68,0.48
		c-2.54,3.82-3.78,7.98-4.49,12.42c-0.3,2.19-0.43,4.44,0.07,6.83c0.43,2.71,2.81,5.4,5.78,5.24l0,0.84l3.86-0.84
		c1.76-0.36,1.79-2.97,0-3.34l-3.86-0.84l0,0.84c-0.71-0.02-1.19-0.2-1.6-0.63c-0.4-0.44-0.75-1.16-0.93-2.01
		c-0.71-3.63,0.19-7.83,1.38-11.38c0.64-1.86,1.46-3.7,2.5-5.2c0,0,0.68,0.48,0.68,0.48c3.09-4.56,8.27-4.55,11.36,0l0.68-0.48
		c2.1,3.13,3.34,7.19,3.91,10.96c0.29,2.55,0.87,8.11-2.54,8.26l0-0.83l-3.86,0.84c-1.75,0.35-1.79,2.98,0,3.34l3.86,0.84
		c0,0,0-0.83,0-0.83c10.47-0.71,5.25-19.13,1.37-24.49l0.68-0.48c-1.06-1.48-2.39-2.85-4.05-3.89c-1.28-0.85-2.66-1.35-4.05-1.56
		v-1.49c0-2.54,0.7-4.96,1.97-7.08l17.05,17.05L50,89.6l2.36-2.36l17.05-17.05c1.28,2.12,1.97,4.55,1.97,7.08v2.42
		c-2.73,0.74-4.74,3.23-4.74,6.18c0,3.54,2.88,6.41,6.41,6.41s6.41-2.87,6.41-6.41c0-2.96-2.01-5.44-4.74-6.18v-2.42
		c0-3.14-0.86-6.14-2.43-8.77h7.43c9.33,0,16.92,7.59,16.92,16.92V115.11z M73.06,82.81c1.69,0,3.07,1.38,3.07,3.07
		c0,1.69-1.38,3.07-3.07,3.07c-1.69,0-3.07-1.38-3.07-3.07C69.99,84.18,71.37,82.81,73.06,82.81z"/>
	<path class="st0" d="M50,3.34c13.67,0,24.79,11.12,24.79,24.79c0,13.67-11.12,24.79-24.79,24.79c-13.67,0-24.79-11.12-24.79-24.79
		C25.21,14.46,36.33,3.34,50,3.34 M50,0C34.49,0,21.87,12.62,21.87,28.14c0,15.51,12.62,28.13,28.14,28.13
		c15.52,0,28.13-12.62,28.13-28.13C78.13,12.62,65.52,0,50,0L50,0z"/>
	<polygon class="st0" points="82.6,103.34 82.6,98.8 79.26,98.8 79.26,103.34 77.59,103.34 77.59,96.75 74.25,96.75 74.25,103.34 
		72.57,103.34 72.57,100.88 69.23,100.88 69.23,103.34 66.68,103.34 66.68,106.68 85.16,106.68 85.16,103.34 	"/>
</g>
</svg>
