<?xml version="1.0" encoding="utf-8"?>
<!-- Generator: Adobe Illustrator 28.0.0, SVG Export Plug-In . SVG Version: 6.00 Build 0)  -->
<svg version="1.1" id="Livello_1" xmlns="http://www.w3.org/2000/svg" xmlns:xlink="http://www.w3.org/1999/xlink" x="0px" y="0px"
	 viewBox="0 0 100 118.45" style="enable-background:new 0 0 100 118.45;" xml:space="preserve">
<style type="text/css">
	.st0{fill:#54575C;}
</style>
<path class="st0" d="M79.73,68.51c9.33,0,16.92,7.59,16.92,16.92v29.68H3.34V85.43c0-9.33,7.59-16.92,16.92-16.92h8.64l18.73,18.73
	L50,89.6l2.36-2.36L71.1,68.51H79.73 M79.73,65.16H69.71L50,84.87L30.29,65.16H20.26C9.08,65.16,0,74.24,0,85.43v33.02h100V85.43
	C100,74.24,90.93,65.16,79.73,65.16L79.73,65.16z"/>
<path class="st0" d="M50,3.34c13.67,0,24.79,11.12,24.79,24.79c0,13.67-11.12,24.79-24.79,24.79c-13.67,0-24.79-11.12-24.79-24.79
	C25.21,14.46,36.33,3.34,50,3.34 M50,0C34.49,0,21.87,12.62,21.87,28.14c0,15.51,12.62,28.13,28.14,28.13
	c15.52,0,28.13-12.62,28.13-28.13C78.13,12.62,65.52,0,50,0L50,0z"/>
<path class="st0" d="M86.85,97.58c0,0.52-0.47,0.94-1.05,0.94h-5.71v5.71c0,0.58-0.42,1.05-0.94,1.05h-5.64
	c-0.52,0-0.94-0.47-0.94-1.05v-5.71h-5.71c-0.58,0-1.05-0.42-1.05-0.94v-5.64c0-0.52,0.47-0.94,1.05-0.94h5.71v-5.71
	c0-0.58,0.42-1.05,0.94-1.05h5.64c0.52,0,0.94,0.47,0.94,1.05V91h5.71c0.58,0,1.05,0.42,1.05,0.94V97.58z"/>
</svg>
